<?xml version="1.0" encoding="UTF-8" standalone="no"?>
<!-- Created with Keyshape -->
<svg xmlns="http://www.w3.org/2000/svg" xmlns:xlink="http://www.w3.org/1999/xlink" id="Bot" width="200px" height="160px" viewBox="0 0 200 160">
    <defs>
        <linearGradient id="Gradient-0" x1="0.5" y1="0" x2="0.5" y2="1">
            <stop offset="0" stop-color="#f2f8ff"/>
            <stop offset="1" stop-color="#a6daff"/>
        </linearGradient>
        <linearGradient id="Gradient-1" x1="0.5" y1="0.121703" x2="0.5" y2="0.872187">
            <stop offset="0" stop-color="#d4edff"/>
            <stop offset="1" stop-color="#5098e0"/>
        </linearGradient>
        <linearGradient id="Gradient-2" x1="0.479835" y1="1" x2="0.479835" y2="0.34241">
            <stop offset="0" stop-color="#2a90ff"/>
            <stop offset="0" stop-color="#003cc1"/>
            <stop offset="1" stop-color="#001b8a"/>
        </linearGradient>
        <linearGradient id="Gradient-3" x1="1.0125" y1="1" x2="0" y2="0">
            <stop offset="0" stop-color="#001b8a"/>
            <stop offset="1" stop-color="#003cc1"/>
            <stop offset="1" stop-color="#2a90ff"/>
        </linearGradient>
    </defs>
    <style>
@keyframes Oval_t { 0% { transform: translate(100px,96px); } 95.6521% { transform: translate(100px,96px); animation-timing-function: steps(1); } 95.6956% { transform: translate(100px,96px); } 100% { transform: translate(100px,96px); } }
@keyframes bot_t { 0% { transform: translate(59px,128px); } 95.6521% { transform: translate(59px,128px); animation-timing-function: steps(1); } 95.6956% { transform: translate(59px,128px); } 100% { transform: translate(59px,128px); } }
@keyframes Head_t { 0% { transform: translate(49px,52px); } 17.3913% { transform: translate(49px,49px); } 43.4782% { transform: translate(49px,49px); } 60.8695% { transform: translate(49px,52px); } 100% { transform: translate(49px,52px); } }
@keyframes Mouth_t { 0% { transform: translate(92px,101px); } 17.3913% { transform: translate(92px,98px); } 43.4782% { transform: translate(92px,98px); } 60.8695% { transform: translate(92px,101px); } 100% { transform: translate(92px,101px); } }
@keyframes Mouth_o { 0% { opacity: 0; } 17.3913% { opacity: 1; } 34.7826% { opacity: 1; } 43.4783% { opacity: 1; } 60.8696% { opacity: 0; } 100% { opacity: 0; } }
@keyframes Eyes_t { 0% { transform: translate(76px,88px); } 17.3913% { transform: translate(76px,85px); } 30.4347% { transform: translate(76px,80px); } 43.4782% { transform: translate(76px,85px); } 60.8695% { transform: translate(76px,88px); } 100% { transform: translate(76px,88px); } }
@keyframes bubble1_t { 0% { transform: translate(130px,26px); } 13.0434% { transform: translate(130px,21px); } 39.1304% { transform: translate(130px,21px); } 56.5217% { transform: translate(130px,17px); } 100% { transform: translate(130px,17px); } }
@keyframes bubble1_o { 0% { opacity: 0; } 13.0435% { opacity: 1; } 39.1304% { opacity: 1; } 56.5217% { opacity: 0; } 100% { opacity: 0; } }
@keyframes bubble2_t { 0% { transform: translate(12px,42px); } 39.1304% { transform: translate(12px,42px); } 56.5217% { transform: translate(12px,38px); } 73.913% { transform: translate(12px,38px); } 86.9565% { transform: translate(12px,34px); } 100% { transform: translate(12px,34px); } }
@keyframes bubble2_o { 0% { opacity: 0; } 39.1304% { opacity: 0; } 56.5217% { opacity: 1; } 73.913% { opacity: 1; } 86.9565% { opacity: 0; } 100% { opacity: 0; } }
    </style>
    <title>Custom Preset</title>
    <desc>Created with Sketch.</desc>
    <ellipse id="Oval" fill="url(#Gradient-0)" fill-rule="nonzero" rx="64" ry="64" transform="translate(0,0) translate(100,96)" style="animation: Oval_t 2.3s linear infinite both;"/>
    <g id="bot" fill-rule="nonzero" transform="translate(59,128)" style="animation: bot_t 2.3s linear infinite both;">
        <g id="Body">
            <path id="shoulder" d="M16.8684,11.3308C17.0059,8.52783,19.2971,6.32591,22.0783,6.324L59.9868,6.324C62.77,6.32082,65.0642,8.52555,65.1967,11.3308L16.8684,11.3308Z" fill="#0044AA"/>
            <path id="body" d="M0,14.8666C0.00259678,15.8975,0.0664768,16.3418,0.191306,17.3652C24.1602,37.0155,57.9966,36.554,81.2747,17.7599C81.3995,16.7365,81.4634,15.8975,81.466,14.8666L81.466,10L0,10L0,14.8666Z" fill="#0043ab"/>
            <rect id="neck" fill="#003CC1" width="23.6283" height="9.96344" transform="translate(0,0) translate(28.8661,0.546206)"/>
            <path id="chest" d="M15.4096,11.9816C15.4141,35.1697,65.9463,35.0017,65.941,11.9816L65.941,9.77866L15.4096,9.77866L15.4096,11.9816Z" fill="url(#Gradient-1)"/>
            <g id="dent" fill="#2053AF" transform="translate(23,12)">
                <rect id="Rectangle-path" width="4.78713" height="14.4813" rx="2.19" transform="translate(7.39356,7.24066) rotate(47.4195) translate(-2.39356,-7.24066)"/>
                <rect id="Rectangle-path-2" width="4.76337" height="14.4094" rx="2.19" transform="translate(18.3817,7.20472) rotate(47.32) translate(-2.38168,-7.20472)"/>
                <rect id="Rectangle-path-3" width="4.76337" height="14.4094" rx="2.19" transform="translate(29.3817,7.20472) rotate(47.32) translate(-2.38168,-7.20472)"/>
            </g>
        </g>
    </g>
    <g id="Head" fill-rule="nonzero" transform="translate(49,52)" style="animation: Head_t 2.3s linear infinite both;">
        <rect id="Rectangle-path-4" fill="url(#Gradient-2)" width="15.6" height="18.9756" rx="7.16" transform="translate(0,0) translate(85.696,35.189)"/>
        <rect id="Rectangle-path-5" fill="url(#Gradient-2)" width="15.6" height="18.9756" rx="7.16" transform="translate(0,0) translate(0.0744518,35.189)"/>
        <path id="Shape" d="M93.9128,43.4802C93.9128,67.012,74.6212,80.9808,50.8341,80.9808C27.047,80.9808,7.75538,66.9619,7.75538,43.4802C7.75538,19.9985,27.0371,0.862727,50.8341,0.862727C74.6311,0.862727,93.9128,19.9385,93.9128,43.4802Z" fill="url(#Gradient-2)"/>
        <path id="Shape-2" d="M91.154,41.5276C91.154,63.9779,73.4105,77.3059,51.5188,77.3059C29.6272,77.3059,11.8836,63.9479,11.8836,41.5276C11.8836,19.1073,29.6272,0.862727,51.5188,0.862727C73.4105,0.862727,91.154,19.0673,91.154,41.5276Z" fill="url(#Gradient-1)"/>
        <path id="Shape-3" d="M82.4609,39.1244C82.4609,54.3749,68.2998,63.4171,50.8341,63.4171C33.3684,63.4171,19.2073,54.405,19.2073,39.1244C19.2073,23.8437,33.3684,11.5071,50.8341,11.5071C68.2998,11.5071,82.4609,23.8938,82.4609,39.1244Z" fill="#1D6DCC"/>
        <path id="Shape-4" d="M82.4609,37.9728C82.4609,52.5925,68.2998,61.2642,50.8341,61.2642C33.3684,61.2642,19.2073,52.5925,19.2073,37.9728C19.2073,23.3531,33.3684,11.5071,50.8341,11.5071C68.2998,11.5071,82.4609,23.3531,82.4609,37.9728Z" fill="#F4FAFF"/>
        <path id="Shape-5" d="M73.9563,32.906C72.5273,40.4161,64.3998,43.4602,55.4288,41.7179C46.4577,39.9755,40.0272,34.1076,41.4562,26.5975C42.8852,19.0873,51.3799,14.421,60.3112,16.1634C69.2425,17.9057,75.3952,25.4459,73.9563,32.906Z" fill="#FFFFFF"/>
    </g>
    <g id="Mouth" fill="#24282D" fill-rule="nonzero" opacity="0" transform="translate(92,101)" style="animation: Mouth_t 2.3s linear infinite both, Mouth_o 2.3s linear infinite both;">
        <path id="Shape-6" d="M7.67531,7.07723C3.70584,7.07723,0.629495,4.85424,0.629495,2.07048C0.629495,1.45108,1.12711,0.948965,1.74095,0.948965C2.35479,0.948965,2.8524,1.45108,2.8524,2.07048C2.8524,3.57251,5.10508,4.88428,7.67531,4.88428C10.2455,4.88428,12.5081,3.57251,12.5081,2.07048C12.5081,1.45108,13.0058,0.948965,13.6196,0.948965C14.2334,0.948965,14.731,1.45108,14.731,2.07048C14.731,4.85424,11.6349,7.07723,7.67531,7.07723Z"/>
    </g>
    <g id="Eyes" fill="#24282D" fill-rule="nonzero" transform="translate(76,88)" style="animation: Eyes_t 2.3s linear infinite both;">
        <path id="Shape-7" d="M10.0699,5.43748C10.0699,8.11968,7.91509,10.294,5.25695,10.294C2.59882,10.294,0.443969,8.11968,0.443969,5.43748C0.443969,2.75528,2.59882,0.580926,5.25695,0.580926C7.91509,0.580926,10.0699,2.75528,10.0699,5.43748Z"/>
        <ellipse id="Oval-2" rx="4.81299" ry="4.85655" transform="translate(0,0) translate(42.4112,5.43748)"/>
    </g>
    <g id="bubble1" fill-rule="nonzero" opacity="0" transform="translate(130,26)" style="animation: bubble1_t 2.3s linear infinite both, bubble1_o 2.3s linear infinite both;">
        <path id="Shape-8" d="M51.0303,0L18.9001,0C8.46186,0,0,8.15784,0,18.2211C0,24.6655,2.18843,29.9113,7.42078,33.1623C8.29222,35.4775,7.86355,38.0622,6.28677,40C6.28677,40,11.8374,38.8971,13.0809,35.579C14.9619,36.158,16.9255,36.4492,18.9001,36.4421L51.0502,36.4901C61.4852,36.4639,69.9454,28.329,70,18.269C69.9726,8.18278,61.4924,0.0158078,51.0303,0Z" fill="url(#Gradient-3)"/>
        <rect id="Rectangle-path-6" fill="#FFFFFF" width="27.8449" height="3.5324" rx="1.7662" transform="translate(0,0) translate(14.3791,16.769)"/>
        <rect id="Rectangle-path-7" fill="#FFFFFF" width="12.0911" height="3.5324" rx="1.7662" transform="translate(50.9575,18.5352) rotate(180) translate(-6.04554,-1.7662)"/>
    </g>
    <g id="bubble2" fill-rule="nonzero" opacity="0" transform="translate(12,42)" style="animation: bubble2_t 2.3s linear infinite both, bubble2_o 2.3s linear infinite both;">
        <path id="Shape-9" d="M13.5488,0L36.4999,0C43.9558,0,50,6.12005,50,13.6695C50,18.4987,48.4427,22.4409,44.7051,24.8752C44.0855,26.6104,44.3907,28.5463,45.5129,30C45.5129,30,41.5515,29.1721,40.6463,26.6787C39.3012,27.1229,37.8952,27.349,36.4804,27.3489L13.5293,27.3489C6.06615,27.3272,0.0213845,21.2066,0,13.6498C0.0428068,6.10233,6.09471,0.00529378,13.5488,0Z" fill="url(#Gradient-1)"/>
        <rect id="Rectangle-path-8" fill="#FFFFFF" width="20.3126" height="2.57984" rx="1.28992" transform="translate(0,0) translate(14.8523,12.4502)"/>
    </g>
</svg>
