<svg xmlns="http://www.w3.org/2000/svg" width="24" height="36" viewBox="0 0 24 36">
    <defs>
        <linearGradient id="a" x1="50%" x2="50%" y1="0%" y2="100%">
            <stop offset="0%" stop-color="#00CCE9"/>
            <stop offset="39.017%" stop-color="#1D6DCC"/>
            <stop offset="100%" stop-color="#04A"/>
        </linearGradient>
        <linearGradient id="b" x1="50%" x2="50%" y1="0%" y2="100%">
            <stop offset="0%" stop-color="#2A90FF"/>
            <stop offset="33.333%" stop-color="#1D6DCC"/>
            <stop offset="100%" stop-color="#04A"/>
        </linearGradient>
        <linearGradient id="c" x1="4.561%" x2="83.221%" y1="47.147%" y2="47.147%">
            <stop offset="0%" stop-color="#003CC1"/>
            <stop offset="100%" stop-color="#001B8A"/>
        </linearGradient>
    </defs>
    <g fill="none" fill-rule="evenodd">
        <path fill="url(#a)" d="M6.008 35.52C2.704 35.52 0 32.799 0 29.473V6.22C0 2.896 2.704.174 6.008.174s6.008 2.722 6.008 6.047v23.252c0 3.326-2.704 6.047-6.008 6.047"/>
        <path fill="url(#b)" d="M22.11 28.148l-1.674-1.685a5.52 5.52 0 0 1 0-7.77l.884-.892a4.005 4.005 0 0 0 0-5.636 6.179 6.179 0 0 0-8.78 0l-.592.595V29.47a6.03 6.03 0 0 1-.474 2.35l1.855 1.868a6.178 6.178 0 0 0 8.78 0 3.937 3.937 0 0 0 0-5.54"/>
        <path fill="url(#c)" d="M11.99 29.364V12.5l-5.17 5.399c-2.354 2.457-2.358 6.439-.014 8.903l-1.919 2.005h3.836l4.61 4.813-1.806-1.885c.298-.73.462-1.532.462-2.371"/>
    </g>
</svg>
