<svg xmlns="http://www.w3.org/2000/svg" width="434" height="242" viewBox="0 0 434 242">
    <defs>
        <linearGradient id="a" x1="88.101%" x2="7.058%" y1="37.992%" y2="100%">
            <stop offset="0%" stop-color="#00CCE9" stop-opacity=".97"/>
            <stop offset="47.659%" stop-color="#006FE6"/>
            <stop offset="57.428%" stop-color="#D8EBFF"/>
            <stop offset="100%" stop-color="#FFF"/>
        </linearGradient>
        <linearGradient id="b" x1="50%" x2="50%" y1="21.674%" y2="100%">
            <stop offset="0%" stop-color="#00A8F4"/>
            <stop offset="100%" stop-color="#006FE6"/>
        </linearGradient>
        <linearGradient id="c" x1="0%" y1="2.985%" y2="100%">
            <stop offset="0%" stop-color="#007CFF"/>
            <stop offset="100%" stop-color="#001B8A"/>
        </linearGradient>
        <linearGradient id="d" x1="50%" x2="50%" y1="-15.445%" y2="100%">
            <stop offset="0%" stop-color="#FFF"/>
            <stop offset="100%" stop-color="#74C5FF"/>
        </linearGradient>
        <linearGradient id="e" x1="84.785%" x2="18.188%" y1="85.317%" y2="13.887%">
            <stop offset="0%" stop-color="#001B8A"/>
            <stop offset="33.221%" stop-color="#003CC1"/>
            <stop offset="100%" stop-color="#2A90FF"/>
        </linearGradient>
        <linearGradient id="f" x1="95.161%" x2="0%" y1=".151%" y2=".151%">
            <stop offset="0%" stop-color="#001B8A"/>
            <stop offset="47.525%" stop-color="#003CC1"/>
            <stop offset="100%" stop-color="#2662CF"/>
        </linearGradient>
        <linearGradient id="g" x1="18.26%" x2="82.604%" y1="25%" y2="25%">
            <stop offset="0%" stop-color="#80F0FF"/>
            <stop offset="100%" stop-color="#007CFF"/>
        </linearGradient>
        <linearGradient id="h" x1="78.346%" x2="37.204%" y1="102.183%" y2="0%">
            <stop offset="0%" stop-color="#092F97"/>
            <stop offset="100%" stop-color="#3F9CFF"/>
        </linearGradient>
        <linearGradient id="i" x1="84.454%" x2="34.267%" y1="140.984%" y2="-15.651%">
            <stop offset="0%" stop-color="#092F97"/>
            <stop offset="100%" stop-color="#007CFF"/>
        </linearGradient>
        <linearGradient id="j" x1="-197.371%" x2="179.678%" y1="-240.404%" y2="250.094%">
            <stop offset="0%" stop-color="#80F0FF"/>
            <stop offset="100%" stop-color="#007CFF"/>
        </linearGradient>
        <linearGradient id="k" x1="50%" x2="50%" y1="0%" y2="100%">
            <stop offset="0%" stop-color="#FFF"/>
            <stop offset="100%" stop-color="#D4EDFF"/>
        </linearGradient>
        <linearGradient id="l" x1="50%" x2="50%" y1="12.17%" y2="87.219%">
            <stop offset="0%" stop-color="#D4EDFF"/>
            <stop offset="100%" stop-color="#5098E0"/>
        </linearGradient>
        <linearGradient id="m" x1="91.455%" x2="38.48%" y1="41.673%" y2="69.929%">
            <stop offset="0%" stop-color="#FFF"/>
            <stop offset="100%" stop-color="#D4EDFF"/>
        </linearGradient>
        <linearGradient id="n" x1="101.25%" x2="0%" y1="100%" y2="0%">
            <stop offset="0%" stop-color="#001B8A"/>
            <stop offset="47.525%" stop-color="#003CC1"/>
            <stop offset="100%" stop-color="#2A90FF"/>
        </linearGradient>
        <linearGradient id="o" x1="49.994%" x2="49.994%" y1="2.388%" y2="85.025%">
            <stop offset="0%" stop-color="#2A90FF"/>
            <stop offset="16%" stop-color="#1D6DCC"/>
            <stop offset="67%" stop-color="#04A"/>
        </linearGradient>
        <linearGradient id="p" x1="47.984%" x2="47.984%" y1="100%" y2="34.241%">
            <stop offset="0%" stop-color="#001B8A"/>
            <stop offset="47.525%" stop-color="#003CC1"/>
            <stop offset="100%" stop-color="#2A90FF"/>
        </linearGradient>
        <linearGradient id="q" x1="77.049%" x2="28.278%" y1=".629%" y2="98.81%">
            <stop offset="0%" stop-color="#80F0FF"/>
            <stop offset="100%" stop-color="#007CFF"/>
        </linearGradient>
        <linearGradient id="r" x1="13.242%" x2="61.86%" y1=".439%" y2="69.066%">
            <stop offset="0%" stop-color="#80F0FF"/>
            <stop offset="100%" stop-color="#007CFF"/>
        </linearGradient>
        <linearGradient id="s" x1="84.839%" x2="26.383%" y1="-11.788%" y2="79.832%">
            <stop offset="0%" stop-color="#092F97"/>
            <stop offset="100%" stop-color="#007CFF"/>
        </linearGradient>
        <linearGradient id="t" x1=".122%" x2="101.347%" y1="49.94%" y2="49.94%">
            <stop offset="0%" stop-color="#001B8A"/>
            <stop offset="47.52%" stop-color="#003CC1"/>
            <stop offset="100%" stop-color="#2662CF"/>
        </linearGradient>
        <linearGradient id="u" x1="70.673%" x2="36.439%" y1="-145.58%" y2="171.965%">
            <stop offset="0%" stop-color="#007CFF"/>
            <stop offset="100%" stop-color="#092F97"/>
        </linearGradient>
        <linearGradient id="v" x1="1.736%" x2="98.55%" y1="50.289%" y2="50.289%">
            <stop offset="0%" stop-color="#092F97"/>
            <stop offset="100%" stop-color="#007CFF"/>
        </linearGradient>
        <linearGradient id="w" x1="55.144%" x2="43.306%" y1="-8.978%" y2="114.968%">
            <stop offset="0%" stop-color="#FFF"/>
            <stop offset="100%" stop-color="#B9E2FF"/>
        </linearGradient>
        <linearGradient id="x" x1="50.668%" x2="50.668%" y1="121.642%" y2="-215.622%">
            <stop offset="0%" stop-color="#092F97"/>
            <stop offset="100%" stop-color="#007CFF"/>
        </linearGradient>
        <linearGradient id="y" x1="48.537%" x2="48.537%" y1="-403.093%" y2="84.696%">
            <stop offset="0%" stop-color="#FFF"/>
            <stop offset="100%" stop-color="#B9E2FF"/>
        </linearGradient>
        <linearGradient id="z" x1="45.25%" x2="45.25%" y1="-267.257%" y2="135.015%">
            <stop offset="0%" stop-color="#FFF"/>
            <stop offset="100%" stop-color="#B9E2FF"/>
        </linearGradient>
        <linearGradient id="A" x1="50.421%" x2="50.421%" y1=".841%" y2="132.421%">
            <stop offset="0%" stop-color="#FFF"/>
            <stop offset="100%" stop-color="#B9E2FF"/>
        </linearGradient>
        <linearGradient id="B" x1="50.264%" x2="50.264%" y1="99.519%" y2="-.121%">
            <stop offset="0%" stop-color="#092F97"/>
            <stop offset="100%" stop-color="#007CFF"/>
        </linearGradient>
        <linearGradient id="C" x1="-.924%" x2="100.478%" y1="49.99%" y2="49.99%">
            <stop offset="0%" stop-color="#FFF"/>
            <stop offset="100%" stop-color="#B9E2FF"/>
        </linearGradient>
        <linearGradient id="D" x1=".171%" x2="99.651%" y1="50.048%" y2="50.048%">
            <stop offset="0%" stop-color="#B9E2FF"/>
            <stop offset="100%" stop-color="#FFF"/>
        </linearGradient>
        <linearGradient id="E" x1="66.735%" x2="45.44%" y1="4.966%" y2="104.299%">
            <stop offset="0%" stop-color="#FFF"/>
            <stop offset="100%" stop-color="#B9E2FF"/>
        </linearGradient>
        <linearGradient id="F" x1="-29.106%" x2="134.258%" y1="50.621%" y2="50.621%">
            <stop offset="0%" stop-color="#092F97"/>
            <stop offset="100%" stop-color="#007CFF"/>
        </linearGradient>
        <linearGradient id="G" x1=".014%" x2="99.715%" y1="52.867%" y2="52.867%">
            <stop offset="0%" stop-color="#007CFF"/>
            <stop offset="100%" stop-color="#001B8A"/>
        </linearGradient>
        <linearGradient id="H" x1="-.138%" x2="99.608%" y1="49.899%" y2="49.899%">
            <stop offset="0%" stop-color="#001B8A"/>
            <stop offset="100%" stop-color="#007CFF"/>
        </linearGradient>
        <linearGradient id="I" x1="49.604%" x2="48.972%" y1="3.317%" y2="102.4%">
            <stop offset="0%" stop-color="#FFF"/>
            <stop offset="100%" stop-color="#D4EDFF"/>
        </linearGradient>
        <linearGradient id="J" x1="50%" x2="50%" y1="0%" y2="100%">
            <stop offset="0%" stop-color="#00CCE9"/>
            <stop offset="39.017%" stop-color="#1D6DCC"/>
            <stop offset="100%" stop-color="#04A"/>
        </linearGradient>
        <linearGradient id="K" x1="50%" x2="50%" y1="0%" y2="100%">
            <stop offset="0%" stop-color="#2A90FF"/>
            <stop offset="33.333%" stop-color="#1D6DCC"/>
            <stop offset="100%" stop-color="#04A"/>
        </linearGradient>
        <linearGradient id="L" x1="4.561%" x2="83.221%" y1="47.147%" y2="47.147%">
            <stop offset="0%" stop-color="#003CC1"/>
            <stop offset="100%" stop-color="#001B8A"/>
        </linearGradient>
        <linearGradient id="M" x1="49.506%" x2="49.506%" y1="95.443%" y2="-232.894%">
            <stop offset="0%" stop-color="#092F97"/>
            <stop offset="100%" stop-color="#007CFF"/>
        </linearGradient>
        <linearGradient id="N" x1="85.382%" x2="47.774%" y1="-218.592%" y2="68.7%">
            <stop offset="0%" stop-color="#FFF"/>
            <stop offset="100%" stop-color="#B9E2FF"/>
        </linearGradient>
    </defs>
    <g fill="none" fill-rule="evenodd">
        <path fill="#FFF" d="M170.976 170.755l-16.204-16.065c-20.619-20.441-20.619-53.598 0-74.047l8.558-8.485c14.97-14.834 14.97-38.878 0-53.712-23.455-23.261-61.494-23.261-84.956 0l-5.722 5.673L21.229 75.1c-23.405 23.205-23.446 60.803-.131 84.073L2 178.098h38.162l27.894 27.655 17.955 17.8c23.463 23.262 61.502 23.262 84.965 0 14.699-14.589 14.699-38.217 0-52.798"/>
        <path fill="url(#a)" d="M24.151 152.662c.09-11.009 4.578-21.361 13.465-31.057 12.428-13.56 31.727-15.353 38.949-11.354-5.51-8.124-3.613-27.958 6.257-41.376 15.9-21.613 37.736-17.96 43.243-17.208.223-2.372 1.183-8.602 5.273-15.464 4.688-7.87 14.566-18.043 34.993-21.818 22.793-4.212 37.78 1.978 46.341 7.91 7.558 5.237 11.515 11.078 12.823 13.262 4.313-3.192 25.86-17.476 49.357-3.8 10.584 6.16 16.372 14.5 19.509 22.269a22.597 22.597 0 0 1 18.156 2.071s22.238-9.2 35.416 10.52c13.18 19.72 2.405 36.034 2.405 36.034s18.317.514 33.935 19.655c22.855 28.011 12.88 56.512 12.88 56.512H.669L23.99 156.15" transform="translate(0 .073)"/>
        <path fill="url(#b)" d="M25.807 178.818c.553 1.164 2.501 3.03 8.851 5.007 12.286 3.822 42.15.942 45.07 8 3.188 7.705-20.35 5.533-20.08 14.53.23 7.65 16.238 7.371 34.282 7.371h202.269c14.613 0 11.968-6.668 9.9-9.704-3.005-4.407-1.684-8.475 11.465-9.037 12.764-.545 22.113-1.014 29.079-1.014 18.578 0 14.932-9.225 29.406-9.225 8.011 0 17.41-2.601 19.951-5.928H25.807z" transform="translate(0 .073)"/>
        <path fill="#00CCE9" fill-rule="nonzero" d="M390.524 111.305c-6.105-26.466 5.343-34.98 19.653-17.027 14.31 17.768-14.12 40.718-19.653 17.027z"/>
        <path fill="url(#c)" d="M6.772 0h186.82a6.772 6.772 0 0 1 6.773 6.772v134.2H0V6.773A6.772 6.772 0 0 1 6.772 0z" transform="translate(100.77 45.51)"/>
        <path fill="url(#d)" d="M7.495 5.236h185.832a2.257 2.257 0 0 1 2.257 2.258V126.07H5.238V7.494a2.257 2.257 0 0 1 2.257-2.258z" transform="translate(100.77 45.51)"/>
        <g transform="translate(95.533 40.273)">
            <ellipse cx="17.459" cy="17.455" fill="url(#e)" rx="17.459" ry="17.455"/>
            <g fill="#FFF">
                <path d="M20.63 21.477a2.55 2.55 0 1 1 0-5.1 2.55 2.55 0 0 1 0 5.1m-6.8 0a2.55 2.55 0 1 1 0-5.1 2.55 2.55 0 0 1 0 5.1m10.2-5.1h-.85v-1.7c0-.603-.322-1.133-.8-1.435l.796-1.194c.134.049.277.08.429.08a1.275 1.275 0 1 0-1.275-1.276c0 .24.07.463.186.655l-.984 1.475c-.018 0-.035-.005-.052-.005h-8.5c-.018 0-.035.005-.053.005l-.984-1.475c.116-.192.187-.414.187-.655a1.275 1.275 0 1 0-1.275 1.275c.15 0 .294-.03.428-.079l.796 1.194a1.699 1.699 0 0 0-.8 1.435v1.7h-.85a.85.85 0 0 0-.85.85v3.4c0 .47.381.85.85.85h.85v1.7c0 .935.766 1.7 1.7 1.7h8.5c.936 0 1.7-.765 1.7-1.7v-1.7h.85c.47 0 .85-.38.85-.85v-3.4a.85.85 0 0 0-.85-.85"/>
                <path d="M20.63 18.077a.85.85 0 1 0 0 1.7.85.85 0 0 0 0-1.7M13.83 18.077a.85.85 0 1 0 0 1.7.85.85 0 0 0 0-1.7"/>
            </g>
        </g>
        <g transform="translate(161.877 5.364)">
            <ellipse cx="17.459" cy="17.455" fill="url(#e)" rx="17.459" ry="17.455"/>
            <g fill="#FFF">
                <path d="M23.84 23.838H10.619v-3.777h3.904a2.828 2.828 0 0 0 2.708 2.046 2.83 2.83 0 0 0 2.708-2.046h3.903v3.777zM12.338 10.616h9.785l1.51 7.556h-4.514a.945.945 0 0 0-.944.944c0 .028.013.051.016.079-.003.027-.016.05-.016.079 0 .52-.424.944-.944.944a.946.946 0 0 1-.945-.944c0-.028-.013-.052-.016-.08.003-.027.016-.05.016-.078a.945.945 0 0 0-.944-.944h-4.515l1.511-7.556zm13.374 8.315l-1.89-9.444a.943.943 0 0 0-.925-.76H11.563a.943.943 0 0 0-.926.76L8.748 18.93a.874.874 0 0 0-.018.185v5.667c0 .521.423.944.944.944h15.111a.945.945 0 0 0 .945-.944v-5.667a.874.874 0 0 0-.02-.185z"/>
                <path d="M15.34 13.45h3.778a.945.945 0 0 0 0-1.89h-3.777a.945.945 0 0 0 0 1.89M13.452 17.227a.945.945 0 0 0 .944-.944h5.667a.945.945 0 0 0 1.889 0v-.14a1.75 1.75 0 0 0-1.748-1.75h-5.949a1.75 1.75 0 0 0-1.748 1.75v.14c0 .521.423.944.945.944"/>
            </g>
        </g>
        <g transform="translate(220.365 28.055)">
            <ellipse cx="17.459" cy="17.455" fill="url(#e)" rx="17.459" ry="17.455"/>
            <g fill="#FFF">
                <path d="M14.396 10.616a3.782 3.782 0 0 0-3.778 3.778v5.083l2.412-1.206c.13-.065.275-.1.422-.1h6.61a3.782 3.782 0 0 0 3.779-3.777 3.782 3.782 0 0 0-3.778-3.778h-5.667zM9.674 21.95a.947.947 0 0 1-.944-.944v-6.611a5.672 5.672 0 0 1 5.666-5.667h5.667a5.672 5.672 0 0 1 5.667 5.667 5.672 5.672 0 0 1-5.667 5.667h-6.388l-3.579 1.79a.949.949 0 0 1-.422.098z"/>
                <path d="M20.063 21.005h-5.606c.29 1.957 1.774 2.833 3.717 2.833h3.778l2.388 1.778a.941.941 0 0 0 .931-.024.943.943 0 0 0 .459-.81V18.173c-1.212 1.541-3.56 2.833-5.667 2.833"/>
            </g>
        </g>
        <path fill="url(#f)" d="M73.102 6.042H242.442c-3.968 3.351-18.092 3.993-35.104 4.026v.001H34.008v-.004C17.488 10.006 3.882 9.321 0 6.042h73.102z" transform="translate(79.82 177.29)"/>
        <path fill="url(#g)" d="M0 0h242.442v6.042H0z" transform="translate(79.82 177.29)"/>
        <path fill="#2662CF" d="M176.997 177.29h48.087a3.02 3.02 0 0 1-3.02 3.022h-42.047a3.02 3.02 0 0 1-3.02-3.021z"/>
        <g transform="translate(166.242 76.055)">
            <ellipse cx="34.931" cy="34.744" fill="#2662CF" rx="34.748" ry="34.739"/>
            <path fill="#80C0FF" d="M27.302 49.967a3.71 3.71 0 0 1-2.632-1.09L13.501 37.71a3.722 3.722 0 1 1 5.264-5.263l11.17 11.166a3.72 3.72 0 0 1 0 5.263 3.71 3.71 0 0 1-2.633 1.091"/>
            <path fill="#D4EDFF" d="M29.935 21.28a3.722 3.722 0 0 0-5.265 0L13.501 32.448a3.72 3.72 0 0 0 0 5.263l5.062 5.06a3.705 3.705 0 0 1 .138-5.007l11.234-11.22a3.72 3.72 0 0 0 0-5.262"/>
            <g>
                <path fill="#80C0FF" d="M42.194 49.967a3.71 3.71 0 0 0 2.633-1.09L55.996 37.71a3.722 3.722 0 1 0-5.264-5.263l-11.17 11.166a3.72 3.72 0 0 0 0 5.263 3.71 3.71 0 0 0 2.632 1.091"/>
                <path fill="#D4EDFF" d="M39.562 21.28a3.722 3.722 0 0 1 5.265 0l11.169 11.167a3.72 3.72 0 0 1 0 5.263l-5.062 5.06a3.705 3.705 0 0 0-.138-5.007l-11.234-11.22a3.72 3.72 0 0 1 0-5.262"/>
            </g>
        </g>
        <g>
            <g transform="translate(312.27)">
                <path fill="#0B339B" d="M65.007 25.406c.45 0 .815.365.815.815v7.07c0 .45-.365.814-.815.814v-8.699zM1.585 25.406a.679.679 0 0 0-.68.68v7.34c0 .375.305.679.68.679v-8.699zM1.585 15.74a.679.679 0 0 0-.68.68v3.198c0 .375.305.68.68.68V15.74zM1.585 36.038a.679.679 0 0 0-.68.679v7.34c0 .376.305.68.68.68v-8.699z"/>
                <path fill="url(#h)" d="M11.449.106h43.71c5.523 0 10 4.477 10 10v111.757c0 5.523-4.477 10-10 10h-43.71c-5.523 0-10-4.477-10-10V10.106c0-5.523 4.477-10 10-10z"/>
                <path fill="url(#i)" d="M10.807 1.518h44.994a8 8 0 0 1 8 8v112.997a8 8 0 0 1-8 8H10.807a8 8 0 0 1-8-8V9.518a8 8 0 0 1 8-8z"/>
                <ellipse cx="22.228" cy="8.285" fill="#0B339B" rx="1" ry="1"/>
                <ellipse cx="33.296" cy="123.786" fill="#022057" rx="4.278" ry="4.349"/>
                <path fill="url(#j)" d="M5.01 15.104h57.054v101.381H5.01z"/>
                <rect width="11.544" height="1" x="27.524" y="7.732" fill="#0B339B" rx=".5"/>
            </g>
            <path fill="url(#k)" d="M93.66 97.84c-1.856 4.138-2.895 7.312-3.116 9.523-.332 3.317 1.2 2.673 5.047-1.22 3.849-3.892 5.453-6.728 3.849-9.426-1.07-1.799-2.94-2.809-5.608-3.03l-.173 4.153z" transform="translate(283.217)"/>
            <path fill="url(#l)" d="M98.282 95.598c-.568-.154-1.266-.013-2.088.604-1.789 1.342-3.49 4.247-5.103 8.715l-.424-.001c.505-1.926 1.39-4.3 2.656-7.124l.173-4.153c2.082.173 3.677.826 4.786 1.959z" transform="translate(283.217)"/>
            <path fill="url(#k)" d="M92.399 80.875c-1.575 4.007-2.797 7.6-3.668 10.778-1.307 4.767 1.053 10.204 3.916 6.472 2.863-3.731 6.826-8.994 7.891-12.333 1.065-3.34.89-6.644-2.43-8.448-2.214-1.203-4.117-.025-5.71 3.531z" transform="translate(283.217)"/>
            <path fill="url(#l)" d="M100.866 81.2c-.81-1.799-2.694-1.668-5.653.393-3.4 2.367-5.75 6.476-7.051 12.327.012-.86.128-1.758.368-2.634.87-3.178 2.093-6.771 3.668-10.778 1.593-3.557 3.496-4.734 5.71-3.531 1.873 1.018 2.745 2.513 2.958 4.223z" transform="translate(283.217)"/>
            <path fill="url(#m)" d="M59.352 169.91c.105-6.725.402-11.472.889-14.242.46-1.158 1.13-1.985 2.005-2.48 2.056-1.164 13.346-6.205 19.81-21.346H44.008c-.81-2.46-1.717-4.909-2.722-8.041-2.44-7.61-5.876-14.43-10.309-20.461-.804-3.137-.61-8.328.581-15.574 1.788-10.87 2.727-14.765-.58-23.131-3.308-8.367-7.56-7.9-8.71-1.076-1.151 6.825-3.898 14.436-7.24 26.667-3.34 12.23-2.485 16.812-2.42 28.282.042 7.646.596 20.753-2.707 39.32l-7.141 28.42h57.105c-.119-26.274-.637-8.408-.513-16.338z" transform="translate(283.217)"/>
            <path fill="url(#k)" d="M94.436 44.239c4.91-3.567 8.243-5.538 9.997-5.914 2.631-.564 4.056 2.37.294 9.196-2.509 4.55-5.7 8.858-9.575 12.924 4.06 3.368 6.622 6.792 7.686 10.272 1.595 5.22-11.983 13.812-14.48 14.512-2.497.699-3.452-5.66.29-11.1 2.494-3.627 4.423-6.153 5.788-7.576V44.24z" transform="translate(283.217)"/>
            <path fill="url(#l)" d="M104.612 38.257c-3.061 1.38-8.364 7.928-9.306 11.75-.779 3.155-.789 6.58-.03 10.273l-.124.13c2.984 2.476 5.16 4.982 6.524 7.517-2.299-2.466-7.175.352-11.155 4.653-2.846 3.076-4.257 6.469-4.233 10.18l-.048.032c-.327-2.221.283-5.608 2.408-8.698 2.494-3.627 4.423-6.152 5.788-7.575V44.204c4.91-3.566 8.243-5.538 9.997-5.914.06-.013.12-.024.179-.033z" transform="translate(283.217)"/>
            <path fill="url(#n)" d="M7.863 160.916l52.37 6.103v19.87l-59.76.556z" transform="translate(283.217)"/>
        </g>
        <g fill-rule="nonzero" transform="translate(325.847 47.365)">
            <ellipse cx="20.036" cy="20.139" fill="#FFF" rx="20.036" ry="20.139"/>
            <path fill="#04A" d="M12.436 33.87c.044-.769.764-1.372 1.64-1.373h11.922c.875 0 1.597.604 1.639 1.373h-15.2z"/>
            <path fill="url(#o)" d="M7.37 34.916c0 .318.02.637.06.953 7.35 5.879 17.862 5.879 25.214 0 .039-.316.058-.635.06-.953v-1.504H7.37v1.504z"/>
            <path fill="#003CC1" d="M16.582 30.666h7.37v3.204h-7.37z"/>
            <rect width="5.067" height="5.95" x="31.321" y="16.935" fill="url(#p)" rx="2.533"/>
            <rect width="5.067" height="5.95" x="4.145" y="16.935" fill="url(#p)" rx="2.533"/>
            <path fill="url(#p)" d="M33.624 19.799c0 7.393-6.085 11.783-13.588 11.783-7.502 0-13.587-4.405-13.587-11.783 0-7.379 6.081-13.391 13.587-13.391 7.507 0 13.588 5.994 13.588 13.39z"/>
            <path fill="url(#l)" d="M32.703 19.312c0 7.125-5.567 11.354-12.436 11.354-6.87 0-12.437-4.239-12.437-11.354 0-7.114 5.568-12.904 12.437-12.904s12.436 5.777 12.436 12.904z"/>
            <path fill="#1D6DCC" d="M29.94 18.378c0 4.841-4.435 7.711-9.904 7.711-5.468 0-9.903-2.86-9.903-7.71 0-4.851 4.435-8.767 9.903-8.767 5.47 0 9.904 3.932 9.904 8.766z"/>
            <path fill="#F4FAFF" d="M29.94 17.89c0 4.572-4.435 7.284-9.904 7.284-5.468 0-9.903-2.712-9.903-7.285 0-4.572 4.435-8.277 9.903-8.277 5.47 0 9.904 3.705 9.904 8.277z"/>
            <path fill="#FFF" d="M27.57 16.324c-.46 2.344-3.077 3.294-5.965 2.75-2.888-.543-4.958-2.375-4.498-4.719.46-2.344 3.194-3.8 6.07-3.256 2.875.544 4.856 2.897 4.392 5.225z"/>
            <path fill="#24282D" d="M16.121 18.995c0 .884-.721 1.602-1.612 1.602-.89 0-1.612-.718-1.612-1.602 0-.885.722-1.602 1.612-1.602.89 0 1.612.717 1.612 1.602z"/>
            <ellipse cx="26.024" cy="18.995" fill="#24282D" rx="1.612" ry="1.602"/>
            <path fill="#24282D" d="M20.265 23.8c-1.296 0-2.301-.663-2.301-1.495 0-.185.162-.335.363-.335.2 0 .363.15.363.335 0 .449.736.84 1.575.84.84 0 1.579-.391 1.579-.84 0-.185.162-.335.363-.335.2 0 .363.15.363.335 0 .832-1.011 1.496-2.305 1.496z"/>
            <path fill="url(#l)" d="M11.976 34.094c0 1.968.756 3.865 2.118 5.313a20.729 20.729 0 0 0 11.888 0 7.758 7.758 0 0 0 2.115-5.313v-.682H11.976v.682z"/>
            <rect width="1.382" height="4.577" x="16.121" y="34.786" fill="#2053AF" rx=".691" transform="rotate(47.42 16.812 37.074)"/>
            <rect width="1.382" height="4.577" x="19.346" y="34.786" fill="#2053AF" rx=".691" transform="rotate(47.32 20.036 37.074)"/>
            <rect width="1.382" height="4.577" x="22.57" y="34.786" fill="#2053AF" rx=".691" transform="rotate(47.32 23.26 37.074)"/>
        </g>
        <g fill-rule="nonzero" transform="translate(271.504 8.745)">
            <path fill="url(#l)" d="M16.004.345h27.11c8.807 0 15.946 7.231 15.946 16.152 0 5.706-1.84 10.365-6.254 13.241a6.401 6.401 0 0 0 .954 6.056s-4.68-.979-5.748-3.925c-1.59.525-3.25.792-4.921.792H15.98C7.165 32.635.025 25.403 0 16.474.05 7.556 7.2.35 16.004.344z"/>
            <rect width="27.896" height="3.557" x="15.027" y="14.442" fill="#FFF" rx="1.778"/>
            <path fill="url(#n)" d="M142.67 6.11h-31.862c-10.35 0-18.742 8.498-18.742 18.983 0 6.714 2.17 12.18 7.36 15.566a7.511 7.511 0 0 1-1.125 7.124s5.504-1.149 6.737-4.606c1.865.604 3.812.907 5.77.9l31.881.05c10.348-.028 18.737-8.503 18.791-18.984-.027-10.509-8.436-19.017-18.81-19.034z"/>
            <rect width="27.896" height="3.557" x="105.09" y="23.227" fill="#FFF" rx="1.778"/>
            <rect width="12.113" height="3.557" x="135.145" y="23.227" fill="#FFF" rx="1.778" transform="rotate(180 141.201 25.006)"/>
        </g>
        <g fill-rule="nonzero">
            <path fill="#2053AF" d="M371.388 213.067c-.19 1.786 8.58 3.97 19.448 4.764 10.868.992 19.638.397 19.829-1.39.19-1.786-8.58-3.97-19.448-4.764s-19.829-.198-19.829 1.39"/>
            <path fill="url(#q)" d="M16.337 56.52c6.006-2.63 18.393-13.145 11.073-15.961-7.32-2.817-1.126-8.825 3.567-11.454 4.692-2.817 5.443-8.638-.376-9.577-5.818-.75-2.815-4.694.376-10.14 2.252-3.943-2.253-10.89-7.133-8.261-7.695 4.13-5.63 19.152-9.76 15.397-2.627-2.253-7.882-2.253-6.944 3.192 1.126 5.446 2.44 15.022-.938 13.895-3.567-1.126-6.194-.187-6.006 5.821.187 6.197 0 11.83 4.88 15.585 4.88 3.756 8.82 2.441 11.26 1.503z" transform="matrix(-1 0 0 1 394.082 138.89)"/>
            <path fill="#FFF" d="M384.502 197.852c-.938-11.642-6.006-28.542-15.203-50.136-.188-.75-.563-1.126-.75-1.502h.187c.188.376.375.939.75 1.502 1.69 3.943 5.068 12.018 8.26 21.406 3.94 11.642 6.38 21.406 6.944 28.917l-.188-.187z"/>
            <path fill="#FFF" d="M371.601 152.968l-4.316-1.84-.392.92 4.316 1.84zM376.707 166.412l-10.483-3.57-.322.946 10.483 3.57zM382.746 159.92l-.95-.311-3.967 12.136.95.31zM383.537 190.552l-7.117-3.807-.472.882 7.117 3.806zM388.021 178.307l-.647-.762-6.01 5.108.647.762z"/>
            <g>
                <path fill="url(#r)" d="M31.46 41.918c2.073-5.263 3.014-19.55-3.202-16.73-6.217 2.82-6.217-4.699-5.087-9.21 1.13-4.512-2.072-8.647-6.216-5.64-4.145 3.008-4.71-1.127-6.217-6.39C9.796 0 2.449-1.317 1.13 3.195c-2.072 7.33 8.478 15.225 3.58 15.601-3.015.188-6.217 3.572-2.261 6.391 4.144 2.632 10.926 7.707 8.1 9.21-2.825 1.505-3.956 3.76 0 7.332 3.957 3.571 7.536 7.33 12.81 6.579 5.276-.752 7.348-4.136 8.101-6.391z" transform="matrix(-1 0 0 1 414.16 148.49)"/>
                <path fill="#FFF" d="M385.149 196.236c6.593-7.707 14.128-21.241 22.04-40.414.189-.564.377-1.128.566-1.316h.188a9.154 9.154 0 0 0-.565 1.316c-1.507 3.383-4.333 10.526-8.289 18.421-4.898 9.775-9.42 17.294-13.94 21.993z"/>
                <path fill="#FFF" d="M405.454 160.571l-1.517-3.857-.93.366 1.517 3.857zM400.168 172.003l-4.174-8.653-.9.435 4.173 8.653zM407.987 171.868l-.446-.896-10.098 5.025.446.895zM389.298 191.255l-2.023-6.867-.96.283 2.024 6.866zM399.839 186.219l-6.943-.616-.088.996 6.942.616z"/>
            </g>
            <path fill="url(#s)" d="M33.86 76.8H21.364c-1.492 0-2.797-1.142-3.17-2.666L15.77 59.472c-.373-1.904 1.12-3.617 3.17-3.617h17.157c1.865 0 3.356 1.713 3.17 3.617l-2.424 14.662c-.187 1.524-1.492 2.666-2.984 2.666z" transform="matrix(-1 0 0 1 414.16 138.89)"/>
            <path fill="url(#t)" d="M17.248 56.319c-2.983-2.84-4.847-5.678-1.491-5.678 3.542 0-.933-5.11 2.983-4.542 4.101.757 3.915 4.353 5.593 1.893 1.677-2.46 1.118-4.164 3.915-3.217 2.05.567 1.491 5.866 2.983 5.11 1.491-.758 3.355-4.543 6.152-2.461 2.796 2.082-.746 7.191-3.17 8.516-2.05 1.514-16.965.379-16.965.379z" transform="matrix(-1 0 0 1 414.16 138.89)"/>
            <path fill="#80F0FF" d="M375.412 194.849c-1.52-.75-4.372-2.623-3.992-4.497.19-1.873 1.14-2.248 2.091-1.124 1.14 1.124 2.282 1.312 3.232-.187.95-1.499 1.521-1.686 2.852-.562 1.33 1.124.57-2.81 2.472-2.436 1.9.188 3.422 3.747 4.753 2.623 1.33-1.124 1.9-3.372 3.802-2.06 1.711 1.31.95 3.934 3.042 2.997 2.091-.937 2.852-1.686 3.232.375.19 2.06 2.662 1.873.95 4.309-1.9 2.622-22.434.562-22.434.562z"/>
            <path fill="url(#u)" d="M39.103 58.473H16.766c-1.156 0-1.926-.873-1.926-1.746 0-1.047.963-1.745 1.926-1.745h22.337c1.155 0 1.926.873 1.926 1.745 0 .873-.77 1.746-1.926 1.746z" transform="matrix(-1 0 0 1 414.16 138.89)"/>
        </g>
        <g>
            <path fill="url(#v)" fill-rule="nonzero" d="M75.003 31.488c-1.22-1.682.489-4.326-.488-7.692-2.931-9.855.488-14.181.488-14.181 0-3.606 2.932-6.73 7.572-8.413C84.774.48 87.216 0 89.903 0c3.908 0 7.572.961 10.503 2.644 2.931 1.683 5.13 4.086 4.885 6.97-.244 1.924-2.198 4.568-.244 7.692 5.374 8.173 2.931 12.74.244 14.182-2.686 1.442-5.618 1.442-7.083 2.404-8.06 4.326-19.052 3.605-23.205-2.404z" transform="translate(54.615 89.764)"/>
            <path fill="url(#w)" fill-rule="nonzero" d="M51.268 68.652c-1.71-.244-3.665-.488-5.62-.976-1.465-.245-2.198-1.71-1.954-3.175.244-1.466 1.71-2.198 3.176-1.954 9.04 1.954 16.371 1.221 21.747-2.687C76.924 54 78.635 43.254 78.635 43.254c.244-1.466 1.466-2.443 2.932-2.198 1.466.244 2.443 1.465 2.199 2.93 0 .489-1.955 13.188-12.217 20.27-5.62 3.908-12.462 5.373-20.28 4.396z" transform="translate(54.615 89.764)"/>
            <path fill="url(#x)" fill-rule="nonzero" d="M80.432 39.273h-.468c-2.11 0-3.75 1.492-3.985 3.731 0 0-.234 1.493-.703 3.483-.469.498-.703.995-.937 1.493-.703 2.239 1.406 4.976 3.515 5.224 1.406.25 2.813-.995 3.75-2.239 0 .25.235.25.235.498.234-.498.468-.995.468-1.493.235-.746.703-1.244.703-1.99v-.249c.47-1.99.703-3.483.703-3.483.47-2.487-.937-4.478-3.28-4.975z" transform="translate(54.615 89.764)"/>
            <path fill="url(#y)" fill-rule="nonzero" d="M81.88 44.129c-1.215-.724-2.43-2.652-.729-4.581 1.459-1.93 3.89-2.893 6.564-2.893h.73c2.187 0 4.375.964 5.834 2.41-1.459 3.617-8.995 6.51-12.398 5.064z" transform="translate(54.615 89.764)"/>
            <path fill="url(#z)" fill-rule="nonzero" d="M86.422 31.745V40.145h4.122l.243-6.96v-2.64c-1.455.72-2.91 1.2-4.365 1.2z" transform="translate(54.615 89.764)"/>
            <path fill="url(#A)" fill-rule="nonzero" d="M86.662 34.036c4.074 0 7.428-1.93 9.585-5.066 1.438-2.17 2.396-4.583 2.396-7.478v-4.825c0-3.619-1.437-6.755-3.834-8.926-2.156-2.171-5.272-3.377-8.387-3.377-2.157 0-4.074.482-5.99 1.688-3.595 2.172-6.231 6.273-6.231 10.856v4.825c0 4.342 2.396 8.202 5.99 10.373 1.918 1.207 4.074 1.93 6.47 1.93z" transform="translate(54.615 89.764)"/>
            <path fill="#007CFF" fill-rule="nonzero" d="M128.993 164.315c-1.45 6.347 6.282 12.695 12.565 14.16 6.282 1.464 12.565-2.442 14.015-8.79 1.45-6.347-2.417-12.695-8.7-14.16-6.523-1.464-16.672 2.442-17.88 8.79z"/>
            <path fill="#006FE6" fill-rule="nonzero" d="M141.037 117.69c-.235 1.429-1.645 2.62-3.055 2.62-1.646 0-2.82-1.191-3.056-2.62h6.11z"/>
            <path fill="url(#B)" fill-rule="nonzero" d="M93.642 39.306c.98 1.223 1.714 2.691 1.714 4.404 0 0-3.916 18.594 4.16 28.136 0 0-14.685 8.807-26.188 2.936 0-8.319 5.14-14.19 4.405-27.647-.244-2.936.98-5.382 2.693-7.34.244 4.16 9.056-.978 13.216-.489z" transform="translate(54.615 89.764)"/>
            <g fill-rule="nonzero">
                <path fill="#19428C" d="M133.177 216.333c-1.92-.245-3.36 1.466-3.6 1.955-1.441 2.932-1.681 6.109-4.322 10.752-1.92 3.176-3.36 3.665-4.801 6.353-1.2 2.2.72 3.421 3.12 2.933.96-.245 6.482-.734 7.202-4.888.72-3.176 5.522-4.154 5.762-5.376 0-.733-.48-2.932 0-5.62.24-3.421-1.68-5.865-3.36-6.11z"/>
                <path fill="url(#C)" d="M8.773 13.896c1.44-2.199 4.321-9.774 3.841-11.73-.48-2.198-4.561-2.931-5.041-1.22-.96 2.931-.72 8.552-4.081 13.928 0 1.71 3.6 1.71 5.281-.978z" transform="translate(120.086 216.31)"/>
            </g>
            <g fill-rule="nonzero">
                <path fill="#19428C" d="M67.709 185.53c1.421-1.475.948-3.688.71-4.18-1.421-2.952-3.79-4.92-5.686-10.084-1.422-3.444-.948-4.92-2.133-7.625-.947-2.46-3.08-1.475-4.265.738-.473.738-3.317 5.657-.473 8.854 2.132 2.46 0 7.133.71 7.87.474.493 2.37 1.476 4.502 3.444 2.37 2.214 5.45 2.214 6.635.984z"/>
                <path fill="url(#D)" d="M4.6 11.466c.949 2.706 5.214 9.347 6.872 10.084 1.896.984 4.976-1.967 4.028-3.443-1.658-2.705-6.397-5.657-8.53-11.806-1.184-.983-3.317 1.968-2.37 5.165z" transform="translate(54.615 162.2)"/>
            </g>
            <path fill="#007CFF" fill-rule="nonzero" d="M116.906 180.66l28.15-12.756c2.692-1.203 5.875 0 6.854 2.647 1.224 2.648 0 5.777-2.693 6.74L125.23 187.88l8.567 28.64-7.343 2.407-12.24-32.25c-.733-2.166.246-4.814 2.693-6.017z"/>
            <path fill="url(#E)" fill-rule="nonzero" d="M87 75.055c-1.433 0-2.627 0-4.3-.245-1.433-.245-2.389-1.468-2.389-2.936.24-1.468 1.434-2.447 2.867-2.447 4.778.49 10.75.245 12.9-3.18 3.345-5.627-3.105-18.104-5.494-22.019-.717-1.223-.478-2.936.717-3.67 1.194-.734 2.866-.489 3.583.734 1.194 1.958 11.228 18.105 5.495 27.646-2.15 4.16-6.69 6.117-13.379 6.117z" transform="translate(54.615 89.764)"/>
            <path fill="url(#F)" fill-rule="nonzero" d="M101.262 17.989s-8.902 3.16-14.343-.73c-5.44-3.89-8.16-9.726-5.688-13.13 2.473-3.405 8.903-3.162 14.343.729 5.441 3.89 5.688 13.13 5.688 13.13z" transform="translate(54.615 89.764)"/>
            <path fill="#007CFF" fill-rule="nonzero" d="M144.671 166.564s-4.871.237-12.178.473c-3.653.237-7.793.474-12.42.474-4.628.237-9.256.474-14.127.71h-2.922l-.974.238-1.705.237h-1.218l-.974.236c-2.436.474-4.628 1.185-6.82 1.659-2.192.473-4.383.947-6.332 1.658-1.948.474-3.897.947-5.602 1.421a154.9 154.9 0 0 1-8.524 2.132c-1.948.474-3.166.948-3.166.948l1.461 6.395s1.218-.236 3.41-.473 5.115-.711 8.768-1.422c1.705-.236 3.653-.71 5.845-.947 1.948-.237 4.14-.71 6.332-1.185 2.192-.473 4.628-.947 6.82-1.42l.974-.238h.731s-.731.237-.244 0l1.705-.237h3.166c4.871-.237 9.742-.473 14.126-.473a924.04 924.04 0 0 0 12.421-.711c7.307-.474 12.178-.71 12.178-.71l-.731-8.765z"/>
            <path fill="#121F55" fill-rule="nonzero" d="M143.257 170.23c0-.978-.73-1.467-1.46-1.467H84.895c-1.216 0-2.189.733-2.189 1.466 0 .978.973 1.466 2.189 1.466h56.904c.73.245 1.459-.488 1.459-1.466z"/>
            <path fill="url(#G)" fill-rule="nonzero" d="M64.642 34.21c0 .978-.73 1.467-1.702 1.467H41.297c-.973 0-1.702-.733-1.702-1.466 0-.978.73-1.466 1.702-1.466H62.94c.972 0 1.702.733 1.702 1.466z" transform="translate(80.803 136.018)"/>
            <path fill="url(#H)" fill-rule="nonzero" d="M1.902 3.177v28.835c0 1.221.973 2.443 2.432 2.443h37.692c1.216 0 2.432-.977 2.432-2.443V3.177c0-1.222-.973-2.444-2.432-2.444H4.09c-1.215 0-2.188 1.222-2.188 2.444z" transform="translate(80.803 136.018)"/>
            <path fill="url(#I)" fill-rule="nonzero" d="M0 3.316v28.835c0 1.222.973 2.444 2.432 2.444h37.936c1.216 0 2.432-.978 2.432-2.444V3.316c0-1.221-.973-2.443-2.432-2.443H2.432C.972.873 0 2.095 0 3.316z" transform="translate(80.803 136.018)"/>
            <path fill="url(#J)" d="M1.805 10.666A1.816 1.816 0 0 1 0 8.85V1.868C0 .87.812.052 1.805.052c.992 0 1.804.818 1.804 1.816V8.85c0 1-.812 1.816-1.804 1.816" transform="translate(99.135 148.236)"/>
            <path fill="url(#K)" d="M6.641 8.453l-.503-.506a1.658 1.658 0 0 1 0-2.334l.266-.267a1.202 1.202 0 0 0 0-1.693 1.856 1.856 0 0 0-2.637 0l-.178.179V8.85c0 .25-.05.488-.143.706l.558.56a1.856 1.856 0 0 0 2.637 0 1.182 1.182 0 0 0 0-1.663" transform="translate(99.135 148.236)"/>
            <path fill="url(#L)" d="M3.601 8.818V3.754L2.05 5.374a1.953 1.953 0 0 0-.005 2.675l-.576.601H2.62l1.385 1.446-.543-.566c.09-.22.14-.46.14-.712" transform="translate(99.135 148.236)"/>
            <path fill="url(#M)" fill-rule="nonzero" d="M98.079 45.883c-3.114 0-5.031 1.69-5.75 3.862a73.032 73.032 0 0 0-2.635-4.827c-1.198-1.932-.719-4.345 1.198-5.794.719-.483 1.437-.724 2.156-.724 1.437 0 2.635.724 3.354 1.931.48.966 1.917 2.897 3.114 5.552-.479.242-.958 0-1.437 0z" transform="translate(54.615 89.764)"/>
            <path fill="url(#N)" fill-rule="nonzero" d="M72.148 70.125c-.71 1.486-.71 2.972-.237 4.458l8.506 3.962c1.18-.743 2.362-1.733 2.835-3.22 1.417-3.219 0-6.934-3.072-8.42-3.071-1.485-6.615 0-8.032 3.22z" transform="translate(54.615 89.764)"/>
        </g>
    </g>
</svg>
