<svg xmlns="http://www.w3.org/2000/svg" viewBox="0 0 1279.99994 640.17542"><defs><style>.cls-1{fill:#78bc61;}.cls-12,.cls-2{fill:#639a50;}.cls-3{fill:#5c6db4;}.cls-4{fill:#8b97c9;}.cls-5{fill:#e7eaf4;}.cls-6{fill:#ffa940;}.cls-7{fill:#d18b35;}.cls-8{fill:#ed6b63;}.cls-9{fill:#f2958f;}.cls-10{fill:#00cce9;}.cls-11{fill:#003369;}.cls-12,.cls-22,.cls-23,.cls-24{fill-rule:evenodd;}.cls-13{fill:#005bbd;}.cls-14{fill:#8be7f5;}.cls-15{fill:#004793;}.cls-16{fill:#b9c0df;}.cls-17{fill:#00a7bf;}.cls-18,.cls-23{fill:#a9d49a;}.cls-19{fill:#2e449f;}.cls-20{fill:#006fe6;}.cls-21{fill:#2e89ea;}.cls-22{fill:#ffd7a8;}.cls-24,.cls-25{fill:#fff;}</style></defs><title>Asset 55</title><g id="Layer_2" data-name="Layer 2"><g id="Layer_1-2" data-name="Layer 1"><path class="cls-1" d="M827.04983,52.03317H639.32844V239.75606H827.04983Z"/><rect class="cls-2" x="683.9692" y="104.48148" width="98.43987" height="11.10371" rx="4.43601"/><rect class="cls-2" x="691.77605" y="140.34276" width="82.82634" height="11.10371" rx="4.43601" transform="translate(879.08383 -587.2946) rotate(90)"/><path class="cls-3" d="M1202.48827,52.03317H1014.76688V239.75606h187.72139Z"/><rect class="cls-4" x="1057.95392" y="117.94003" width="106.06486" height="55.90916" rx="22.3361"/><circle class="cls-5" cx="1134.32788" cy="145.89461" r="23.34154"/><path class="cls-6" d="M827.15732,427.402H639.43594V615.12485H827.15732Z"/><path class="cls-7" d="M754.72381,536.15908l-5.80957,6.03326a8.72279,8.72279,0,0,1-13.3341-.96293L720.171,523.50883l-17.41566,18.21536-8.72607,9.12658v.95389a8.72633,8.72633,0,0,0,8.72607,8.72607h61.0825a8.71728,8.71728,0,0,0,8.49253-6.78636l-8.49253-8.48214Z"/><path class="cls-7" d="M763.83788,481.99608h-61.0825a8.726,8.726,0,0,0-8.72607,8.72607v47.50234L702.75538,529.1l11.00319-11.50517a8.62385,8.62385,0,0,1,6.41247-2.81211h.04261a8.72385,8.72385,0,0,1,6.54242,2.99959l15.8927,18.33412,5.83514-6.012a8.66938,8.66938,0,0,1,6.16747-2.65021,9.19315,9.19315,0,0,1,6.21647,2.5096l2.97,2.966,8.72607,8.71383V490.72215A8.72582,8.72582,0,0,0,763.83788,481.99608Zm-17.58609,34.90429a8.72608,8.72608,0,1,1,8.72607-8.72607A8.72633,8.72633,0,0,1,746.25179,516.90037Z"/><path class="cls-8" d="M1202.48827,427.4812H1014.76688V615.20409h187.72139Z"/><path class="cls-9" d="M1147.55351,521.56153h-5.50887a14.529,14.529,0,0,0-13.50572-9.57962,15.21269,15.21269,0,0,0-10.40716,4.14485,14.53982,14.53982,0,0,0-3.47676,5.43477h-44.796a4.8562,4.8562,0,0,0,0,9.7124h44.65785a14.467,14.467,0,0,0,13.619,9.97324h.211a14.42607,14.42607,0,0,0,13.798-9.97324h5.40869a4.8562,4.8562,0,1,0,0-9.7124Zm-15.785,8.579a4.50752,4.50752,0,0,1-3.49988,1.39427,4.92047,4.92047,0,0,1,.06165-9.84045c.02608,0,.045-.01423.07587,0a4.91986,4.91986,0,0,1,3.36236,8.44618Z"/><path class="cls-9" d="M1069.859,502.22683h10.51061a14.484,14.484,0,0,0,13.56174,9.77405h.20866a14.60854,14.60854,0,0,0,13.73039-9.77405h39.68309a4.85621,4.85621,0,1,0,0-9.71241h-39.65434a14.4803,14.4803,0,0,0-13.56944-9.7788,14.94,14.94,0,0,0-10.40242,4.14485,14.50275,14.50275,0,0,0-3.5399,5.63395H1069.859a4.8562,4.8562,0,0,0,0,9.71241Zm20.84278-8.38454a4.87665,4.87665,0,0,1,3.424-1.39426c.02609-.00474.05454-.0332.07588,0a4.9227,4.9227,0,0,1,4.85383,4.989,4.8151,4.8151,0,0,1-4.99136,4.85146,4.9199,4.9199,0,0,1-3.36235-8.44619Z"/><path class="cls-9" d="M1147.55351,551.00226h-39.65523a14.54211,14.54211,0,0,0-27.50968,0H1069.859a4.8562,4.8562,0,0,0,0,9.7124h10.50942a14.48249,14.48249,0,0,0,13.56293,9.7788h.211a14.43866,14.43866,0,0,0,13.73721-9.7788h39.6739a4.8562,4.8562,0,1,0,0-9.7124Zm-49.98948,8.38453a4.98148,4.98148,0,0,1-3.49988,1.39426,4.92047,4.92047,0,0,1,.06165-9.84044.40491.40491,0,0,0,.07588,0,4.91822,4.91822,0,0,1,3.36235,8.44618Z"/><path class="cls-6" d="M1202.4883,336.05061v91.55027h77.5116V378.90872A91.46065,91.46065,0,0,0,1202.4883,336.05061Z"/><path class="cls-6" d="M1279.9999,256.58V239.878h-77.42108A187.03287,187.03287,0,0,1,1279.9999,256.58Z"/><path class="cls-10" d="M1202.4883,239.87673v.00122h.09052C1202.54857,239.878,1202.51855,239.87673,1202.4883,239.87673Z"/><path class="cls-10" d="M1202.4883,239.878v96.17266a91.46065,91.46065,0,0,1,77.5116,42.85811V256.58a187.03287,187.03287,0,0,0-77.42108-16.70209Z"/><path class="cls-8" d="M1014.88544,52.03317H827.16406V239.75606h187.72138Z"/><path class="cls-9" d="M827.16406,148.20624V52.03317c103.67441,0,187.72138,84.0447,187.72138,187.72213h-96.1738A91.549,91.549,0,0,0,827.16406,148.20624Z"/><path class="cls-8" d="M966.847,197.73482h24.03761v24.03763H966.847Zm-25.5615,0h24.03766v24.03763H941.28545Zm25.5615-25.56147h24.03761V196.211H966.847Zm-25.5615,0h24.03766V196.211H941.28545Zm-25.56373,0h24.03839V196.211H915.72172Zm25.56373-25.56371h24.03766V170.648H941.28545Zm-25.56373,0h24.03839V170.648H915.72172Zm-25.56145,0h24.03839V170.648H890.16027Zm51.12518-25.56147h24.03766V145.0858H941.28545Zm-25.56373,0h24.03839V145.0858H915.72172Zm-25.56145,0h24.03839V145.0858H890.16027Zm-25.563,0h24.03762V145.0858H864.59731Zm-25.56149,0h24.03766V145.0858H839.03582Zm76.6859-25.56147h24.03839v24.03763H915.72172Zm-25.56145,0h24.03839v24.03763H890.16027Zm-25.563,0h24.03762v24.03763H864.59731Zm-25.56149,0h24.03766v24.03763H839.03582Zm25.56149-25.563h24.03762V93.96135H864.59731Zm-25.56149,0h24.03766V93.96135H839.03582ZM990.88456,223.29778v16.41175h1.52383V223.29778h21.75676q-.06752-.763-.135-1.52533H992.40839V197.73482h17.76148c-.11553-.51019-.24082-1.0174-.36085-1.52384H992.40839V172.17335h9.94952c-.19581-.5087-.38489-1.01889-.58671-1.52532h-9.36281v-20.0754c-.49746-.92359-1.01213-1.83519-1.52383-2.74905V170.648H966.847V146.60964h23.35862c-.29262-.50946-.59275-1.01665-.89137-1.52535H966.847V121.04817h5.77418q-.62688-.76532-1.26125-1.52384H966.847v-5.21524q-.75856-.84068-1.52535-1.67539v6.89063H941.28545V95.4867h6.0353c-.61675-.51321-1.23647-1.01965-1.85693-1.52535h-4.17837V90.66386c-.51018-.38941-1.01213-.78406-1.52534-1.17044v4.46793H915.72172v-19.803c-.50492-.27087-1.01511-.53645-1.52306-.80432V93.96135H890.16027V69.92372h17.15678c-1.09241-.51619-2.1856-1.0294-3.29-1.52532H890.16027V62.832c-.50794-.17933-1.01662-.35939-1.52534-.53646V68.3984H864.59731V55.72532c-.50721-.10279-1.01666-.19357-1.52534-.29261V68.3984H839.03582V52.37155c-.50867-.03152-1.01511-.069-1.52534-.09679V68.3984H827.16406v1.52532h10.34642V93.96135H827.16406V95.4867h10.34642v24.03763H827.16406v1.52384h10.34642v24.03612H827.16406v1.52535h10.34642v2.14956c.5117.05628,1.01818.12829,1.52534.19432v-2.34388H863.072V155.478c.51468.2191,1.01511.46144,1.52534.69027v-9.55862h24.03762V170.648h-1.412q1.499,1.30437,2.93735,2.67026v-1.14494h24.03839V196.211h-6.46448c.27087.50044.5177,1.01665.77955,1.52384h5.68493v13.5719c.54994,1.69565,1.06842,3.40706,1.52306,5.144V197.73482h24.03839v24.03763H916.944c.09979.5057.18006,1.01814.27234,1.52533h22.54382v16.41175h1.52534V223.29778H965.3216v16.41175H966.847V223.29778Z"/><path class="cls-10" d="M1202.48827,239.67906H1014.76688V427.402h187.72139Z"/><path class="cls-11" d="M1202.49014,336.05256V239.87875c-103.67968,0-187.72513,84.04546-187.72513,187.72136h96.1738A91.549,91.549,0,0,1,1202.49014,336.05256Z"/><path class="cls-12" d="M1014.87945,427.4812A187.72166,187.72166,0,0,0,827.15732,615.20258v.00151A187.72432,187.72432,0,0,0,1014.87945,427.4812Z"/><rect class="cls-13" x="1202.4883" y="427.82653" width="77.5116" height="187.72293"/><rect class="cls-8" x="1202.4883" y="52.038" width="77.5116" height="187.72293"/><path class="cls-14" d="M639.33163,52.04292H451.61024V239.76581H639.33163Z"/><path class="cls-13" d="M545.46491,162.12553a16.21629,16.21629,0,1,0-16.21663-16.21668A16.21659,16.21659,0,0,0,545.46491,162.12553Z"/><path class="cls-15" d="M639.33163,427.83142H451.61024v187.7229H639.33163Z"/><path class="cls-13" d="M545.46491,537.914a16.21629,16.21629,0,1,0-16.21663-16.21667A16.21659,16.21659,0,0,0,545.46491,537.914Z"/><path class="cls-3" d="M827.053,239.67906H639.33163V427.402H827.053Z"/><path class="cls-16" d="M639.33163,427.402H827.053L639.33163,239.67909Z"/><polygon class="cls-3" points="1202.482 615.204 1202.482 615.283 1202.482 640 1254.434 640 1280 640 1280 615.204 1202.482 615.204"/><path class="cls-13" d="M827.0531,615.203q1.77375,0,3.53778.04029Q828.82639,615.20483,827.0531,615.203Z"/><rect class="cls-8" x="826.93811" y="615.36035" width="0.11499" height="24.63977"/><path class="cls-8" d="M834.11316,615.34851a186.6502,186.6502,0,0,1,86.19214,24.65161h94.35425l-.04157-24.95227Z"/><polygon class="cls-8" points="1014.618 615.048 834.109 615.348 834.113 615.349 1014.618 615.048"/><path class="cls-14" d="M827.0531,615.36023v24.63989h93.2522a186.6502,186.6502,0,0,0-86.19214-24.65161Z"/><path class="cls-17" d="M834.10907,615.34839q-1.756-.065-3.51819-.1051,1.76248.03809,3.518.1051Z"/><path class="cls-17" d="M834.10883,615.34839q-1.7559-.065-3.518-.1051-1.7645-.03846-3.53778-.04029v.15723l2.2066-.00366Z"/><polygon class="cls-17" points="829.26 615.357 834.113 615.349 834.109 615.348 829.26 615.357"/><polygon class="cls-17" points="834.113 615.349 834.109 615.348 834.109 615.348 834.113 615.349"/><polygon class="cls-17" points="829.26 615.357 827.053 615.36 834.113 615.349 829.26 615.357"/><path class="cls-14" d="M826.93628,615.28333h-187.611v24.71679h94.475a186.81175,186.81175,0,0,1,93.136-24.71606Z"/><polygon class="cls-8" points="826.938 615.36 826.938 615.284 826.936 615.284 826.936 615.36 826.938 615.36"/><polygon class="cls-8" points="826.936 640 826.938 640 826.936 639.076 826.936 640"/><polygon class="cls-8" points="826.938 640.175 826.938 640 826.938 640 826.938 640.175"/><polygon class="cls-8" points="826.936 615.36 826.936 639.076 826.938 640 826.938 640 826.938 615.36 826.936 615.36"/><path class="cls-8" d="M826.89679,615.36047h.03949v-.07641a186.81175,186.81175,0,0,0-93.136,24.71606h93.136v-.92431Z"/><polygon class="cls-8" points="826.936 639.076 826.936 615.36 826.897 615.36 826.936 639.076"/><polygon class="cls-18" points="1014.761 640 1058.53 640 1058.603 640 1202.482 640 1202.482 615.283 1014.761 615.283 1014.761 640"/><polygon class="cls-6" points="639.325 615.283 639.325 615.204 451.604 615.204 451.604 640 451.875 640 454.823 640 471.115 640 520.084 640 523.033 640 569.879 640 639.215 640 639.215 615.283 639.325 615.283"/><rect class="cls-6" x="639.2149" y="615.28333" width="0.11035" height="24.7168"/><rect class="cls-1" x="1202.48834" width="77.5116" height="52.03308"/><path class="cls-6" d="M956.84985,0A187.05161,187.05161,0,0,1,827.16406,52.03235v.00073h187.59009V0Z"/><path class="cls-19" d="M956.84985,0H945.97V.00012h-.12689V0H827.16406V52.03235A187.05161,187.05161,0,0,0,956.84985,0Z"/><polygon class="cls-13" points="1160.504 0 1112.293 0 1014.885 0 1014.885 52.033 1202.476 52.033 1202.476 0 1160.654 0 1160.504 0"/><rect class="cls-13" x="1014.75415" width="0.13135" height="52.03308"/><path class="cls-19" d="M642.73749,0h-3.40582V52.03308H826.96246A187.04924,187.04924,0,0,1,697.36572,0Z"/><rect class="cls-19" x="827.05298" width="0.00012" height="52.03308"/><path class="cls-6" d="M827.053,52.0343v-.00122h-.09052C826.99274,52.03308,827.02277,52.0343,827.053,52.0343Z"/><path class="cls-6" d="M779.519,0H697.36572A187.04924,187.04924,0,0,0,826.96246,52.03308h.09052V0Z"/><polygon class="cls-6" points="639.332 52.033 639.332 0 572.817 0 569.585 0 516.475 0 498.042 0 494.81 0 451.61 0 451.61 52.033 639.332 52.033"/><path class="cls-8" d="M639.33163,239.75718H451.61024v187.7229H639.33163Z"/><path class="cls-13" d="M545.46491,349.83979a16.21629,16.21629,0,1,0-16.21663-16.21667A16.21659,16.21659,0,0,0,545.46491,349.83979Z"/><path class="cls-20" d="M1014.77439,239.75606H827.053V427.4812h187.72138Z"/><path class="cls-13" d="M921.024,239.99767a93.74177,93.74177,0,1,0,93.74288,93.74137A93.74041,93.74041,0,0,0,921.024,239.99767Z"/><rect class="cls-21" x="903.4972" y="316.20213" width="34.833" height="34.833" rx="3.51365"/><path class="cls-22" d="M914.8056,326.91256a3.7445,3.7445,0,0,1,2.84659-2.92114,2.302,2.302,0,0,1,2.859,1.45147l.03814.30081v1.177a5.14195,5.14195,0,0,1-1.86769,3.679c-.23455.17207-.331.42384-.17282.59573.09567.104.21245.227.525.00273q.06622-.04747.1309-.09716a4.91185,4.91185,0,0,0,1.38465-1.69054V338.809a3.39376,3.39376,0,0,0-.48985-.55314c-.22483-.20495-.45164-.453-.7153-.47845-.5927-.01208-.19963.6392-.19963.6392a3.29621,3.29621,0,0,1,.93791.924,3.12309,3.12309,0,0,1,.26229,2.53872,1.39846,1.39846,0,0,1-.33127.74478,3.809,3.809,0,0,1-3.80994.41579,3.71814,3.71814,0,0,1-2.11724-3.41328,3.27618,3.27618,0,0,1-2.18324-3.52183,6.1428,6.1428,0,0,0,1.40509,1.27339,3.10509,3.10509,0,0,0,.27573.16328.35729.35729,0,0,0,.50694-.38068.41238.41238,0,0,0-.17071-.222,5.298,5.298,0,0,1-1.51747-1.3306,3.21294,3.21294,0,0,1-.47258-.64811,2.231,2.231,0,0,1,1.26478-3.37124,2.44207,2.44207,0,0,1-.4457-3.30319,2.10433,2.10433,0,0,1,2.00578-.66069,2.61161,2.61161,0,0,1,1.00787.50118c.24328.21976.55474.5488.78694.33933a.36124.36124,0,0,0,.02564-.48416A2.9656,2.9656,0,0,0,914.8056,326.91256Z"/><path class="cls-22" d="M927.0218,326.91256a3.74448,3.74448,0,0,0-2.84658-2.92114,2.302,2.302,0,0,0-2.859,1.45147l-.03814.30081v1.177a5.14195,5.14195,0,0,0,1.86769,3.679c.23456.17207.331.42384.17282.59573-.09566.104-.21245.227-.525.00273q-.06621-.04747-.13089-.09716a4.91188,4.91188,0,0,1-1.38466-1.69054V338.809a3.39423,3.39423,0,0,1,.48985-.55314c.22483-.20495.45164-.453.7153-.47845.5927-.01208.19963.6392.19963.6392a3.296,3.296,0,0,0-.9379.924,3.12306,3.12306,0,0,0-.2623,2.53872,1.39847,1.39847,0,0,0,.33128.74478,3.809,3.809,0,0,0,3.80994.41579,3.71814,3.71814,0,0,0,2.11723-3.41328,3.27618,3.27618,0,0,0,2.18324-3.52183,6.1428,6.1428,0,0,1-1.40509,1.27339,3.10509,3.10509,0,0,1-.27573.16328.35729.35729,0,0,1-.50694-.38068.41238.41238,0,0,1,.17071-.222,5.29819,5.29819,0,0,0,1.51748-1.3306,3.21329,3.21329,0,0,0,.47257-.64811,2.231,2.231,0,0,0-1.26478-3.37124,2.44215,2.44215,0,0,0,.4457-3.30319,2.10433,2.10433,0,0,0-2.00578-.66069,2.61161,2.61161,0,0,0-1.00787.50118c-.24328.21976-.55474.5488-.78694.33933a.36124.36124,0,0,1-.02563-.48416A2.96554,2.96554,0,0,1,927.0218,326.91256Z"/><path class="cls-23" d="M909.93373,311.35564a1.51429,1.51429,0,0,0-1.51432-1.51431h-.00031a1.51429,1.51429,0,0,0-1.51432,1.51431v3.02913h3.029Z"/><path class="cls-23" d="M934.92262,311.35564a1.51429,1.51429,0,0,0-1.51432-1.51431H933.408a1.51429,1.51429,0,0,0-1.51432,1.51431v3.02913h3.029Z"/><path class="cls-23" d="M918.26334,311.35564a1.51429,1.51429,0,0,0-1.51432-1.51431h-.00031a1.51433,1.51433,0,0,0-1.51432,1.51431v3.02913h3.029Z"/><path class="cls-23" d="M926.593,311.35564a1.51433,1.51433,0,0,0-1.51432-1.51431h-.00031a1.51428,1.51428,0,0,0-1.51431,1.51431v3.02913H926.593Z"/><path class="cls-23" d="M898.65072,344.5986a1.5143,1.5143,0,0,0-1.51432,1.51432v.00031a1.5143,1.5143,0,0,0,1.51432,1.51432h3.02913v-3.029Z"/><path class="cls-23" d="M898.65072,319.60971a1.5143,1.5143,0,0,0-1.51432,1.51432v.00031a1.5143,1.5143,0,0,0,1.51432,1.51432h3.02913v-3.029Z"/><path class="cls-23" d="M898.65072,336.269a1.5143,1.5143,0,0,0-1.51432,1.51432v.00031a1.51433,1.51433,0,0,0,1.51432,1.51432h3.02913v-3.029Z"/><path class="cls-23" d="M898.65072,327.93932a1.51433,1.51433,0,0,0-1.51432,1.51432v.00031a1.51429,1.51429,0,0,0,1.51432,1.51431h3.02913v-3.02894Z"/><path class="cls-23" d="M931.89367,355.88161a1.5143,1.5143,0,0,0,1.51432,1.51432h.00031a1.5143,1.5143,0,0,0,1.51432-1.51432v-3.02912h-3.029Z"/><path class="cls-23" d="M906.90478,355.88161a1.5143,1.5143,0,0,0,1.51432,1.51432h.00031a1.5143,1.5143,0,0,0,1.51432-1.51432v-3.02912h-3.029Z"/><path class="cls-23" d="M923.56407,355.88161a1.51429,1.51429,0,0,0,1.51431,1.51432h.00031a1.51433,1.51433,0,0,0,1.51432-1.51432v-3.02912h-3.02894Z"/><path class="cls-23" d="M915.23439,355.88161a1.51433,1.51433,0,0,0,1.51432,1.51432h.00031a1.5143,1.5143,0,0,0,1.51432-1.51432v-3.02912h-3.029Z"/><path class="cls-23" d="M943.17669,322.63866a1.51429,1.51429,0,0,0,1.51431-1.51432V321.124a1.51429,1.51429,0,0,0-1.51431-1.51432h-3.02913v3.029Z"/><path class="cls-23" d="M943.17669,347.62755a1.51429,1.51429,0,0,0,1.51431-1.51432v-.00031a1.51429,1.51429,0,0,0-1.51431-1.51432h-3.02913v3.029Z"/><path class="cls-23" d="M943.17669,330.96826A1.51428,1.51428,0,0,0,944.691,329.454v-.00031a1.51433,1.51433,0,0,0-1.51431-1.51432h-3.02913v3.02894Z"/><path class="cls-23" d="M943.17669,339.29794a1.51433,1.51433,0,0,0,1.51431-1.51432v-.00031a1.51429,1.51429,0,0,0-1.51431-1.51432h-3.02913v3.029Z"/><path class="cls-20" d="M892.155,297.59179h57.51738a7.26816,7.26816,0,0,1,7.26816,7.26816v57.51738a7.26816,7.26816,0,0,1-7.26816,7.26816H892.155a7.26816,7.26816,0,0,1-7.26816-7.26816V304.85994A7.26815,7.26815,0,0,1,892.155,297.59179Z"/><path class="cls-24" d="M908.2788,319.74682c.31688-1.768,1.5237-4.67047,5.88831-6.04251a4.76176,4.76176,0,0,1,5.914,3.00243l.0789.62223v2.43476a10.63633,10.63633,0,0,1-3.86341,7.61014c-.48519.356-.68462.87674-.35749,1.2323.19789.21518.43946.46956,1.0859.00564q.137-.09817.27078-.201a10.1608,10.1608,0,0,0,2.86422-3.497v19.44131a7.02057,7.02057,0,0,0-1.01328-1.14418c-.46507-.424-.93425-.93707-1.47963-.98971-1.226-.025-.41294,1.32222-.41294,1.32222a6.8184,6.8184,0,0,1,1.94009,1.91127,6.46027,6.46027,0,0,1,.54257,5.25147,2.89278,2.89278,0,0,1-.68525,1.5406c-1.29737,1.05209-3.80949,2.22521-7.881.86009,0,0-3.91862-1.36654-4.3796-7.06053a6.77691,6.77691,0,0,1-4.51613-7.28507,12.70629,12.70629,0,0,0,2.9065,2.63406,6.42073,6.42073,0,0,0,.57035.33776.73907.73907,0,0,0,1.04863-.78746.853.853,0,0,0-.35313-.45918,10.95986,10.95986,0,0,1-3.139-2.75242,6.64573,6.64573,0,0,1-.97755-1.34066c-.70254-1.413-1.9944-5.1513,2.61626-6.97356,0,0-3.68807-3.18866-.922-6.83279a4.35287,4.35287,0,0,1,4.149-1.36667,5.40192,5.40192,0,0,1,2.08483,1.03672c.50325.45457,1.14751,1.13521,1.62783.7019a.74721.74721,0,0,0,.053-1.00149A6.13431,6.13431,0,0,0,908.2788,319.74682Z"/><path class="cls-24" d="M933.5486,319.74682c-.31688-1.768-1.52369-4.67047-5.8883-6.04251a4.76177,4.76177,0,0,0-5.914,3.00243l-.0789.62223v2.43476a10.63633,10.63633,0,0,0,3.86341,7.61014c.48519.356.68461.87674.35748,1.2323-.19788.21518-.43945.46956-1.08589.00564q-.137-.09817-.27077-.201a10.16072,10.16072,0,0,1-2.86423-3.497v19.44131a7.02192,7.02192,0,0,1,1.01327-1.14418c.46508-.424.93425-.93707,1.47964-.98971,1.226-.025.41294,1.32222.41294,1.32222a6.8184,6.8184,0,0,0-1.94009,1.91127,6.46027,6.46027,0,0,0-.54257,5.25147,2.89272,2.89272,0,0,0,.68526,1.5406c1.29736,1.05209,3.80948,2.22521,7.881.86009,0,0,3.91861-1.36654,4.37959-7.06053a6.77691,6.77691,0,0,0,4.51613-7.28507,12.70645,12.70645,0,0,1-2.90649,2.63406,6.42336,6.42336,0,0,1-.57037.33776.73907.73907,0,0,1-1.04862-.78746.853.853,0,0,1,.35313-.45918,10.95986,10.95986,0,0,0,3.139-2.75242,6.64573,6.64573,0,0,0,.97755-1.34066c.70254-1.413,1.9944-5.1513-2.61626-6.97356,0,0,3.68794-3.18866.922-6.83279a4.35288,4.35288,0,0,0-4.149-1.36667,5.40192,5.40192,0,0,0-2.08483,1.03672c-.50325.45457-1.14751,1.13521-1.62783.7019a.74721.74721,0,0,1-.053-1.00149A6.13431,6.13431,0,0,1,933.5486,319.74682Z"/><path class="cls-24" d="M898.20111,287.56661a3.13239,3.13239,0,0,0-3.13243-3.13244H895.068a3.13239,3.13239,0,0,0-3.13244,3.13244v6.26589h6.26551Z"/><path class="cls-24" d="M949.8918,287.56661a3.13239,3.13239,0,0,0-3.13243-3.13244h-.00065a3.13239,3.13239,0,0,0-3.13243,3.13244v6.26589h6.26551Z"/><path class="cls-24" d="M915.4313,287.56661a3.13239,3.13239,0,0,0-3.13244-3.13244h-.00064a3.13246,3.13246,0,0,0-3.13243,3.13244v6.26589h6.26551Z"/><path class="cls-24" d="M932.66161,287.56661a3.13246,3.13246,0,0,0-3.13243-3.13244h-.00064a3.13239,3.13239,0,0,0-3.13244,3.13244v6.26589h6.26551Z"/><path class="cls-24" d="M874.86168,356.33122a3.13239,3.13239,0,0,0-3.13244,3.13243v.00065a3.13239,3.13239,0,0,0,3.13244,3.13243h6.26589v-6.26551Z"/><path class="cls-24" d="M874.86168,304.64053a3.13239,3.13239,0,0,0-3.13244,3.13243v.00065a3.13239,3.13239,0,0,0,3.13244,3.13243h6.26589v-6.26551Z"/><path class="cls-24" d="M874.86168,339.101a3.13239,3.13239,0,0,0-3.13244,3.13244v.00064a3.13246,3.13246,0,0,0,3.13244,3.13243h6.26589V339.101Z"/><path class="cls-24" d="M874.86168,321.87072a3.13246,3.13246,0,0,0-3.13244,3.13243v.00052a3.13241,3.13241,0,0,0,3.13244,3.13256h6.26589v-6.26551Z"/><path class="cls-24" d="M943.62629,379.67065a3.13239,3.13239,0,0,0,3.13243,3.13244h.00065a3.13239,3.13239,0,0,0,3.13243-3.13244v-6.26589h-6.26551Z"/><path class="cls-24" d="M891.9356,379.67065a3.13239,3.13239,0,0,0,3.13244,3.13244h.00064a3.13239,3.13239,0,0,0,3.13243-3.13244v-6.26589H891.9356Z"/><path class="cls-24" d="M926.3961,379.67065a3.13239,3.13239,0,0,0,3.13244,3.13244h.00064a3.13246,3.13246,0,0,0,3.13243-3.13244v-6.26589H926.3961Z"/><path class="cls-24" d="M909.16579,379.67065a3.13246,3.13246,0,0,0,3.13243,3.13244h.00064a3.13239,3.13239,0,0,0,3.13244-3.13244v-6.26589h-6.26551Z"/><path class="cls-24" d="M966.96572,310.906a3.13239,3.13239,0,0,0,3.13244-3.13243V307.773a3.13239,3.13239,0,0,0-3.13244-3.13243h-6.26589V310.906Z"/><path class="cls-24" d="M966.96572,362.59673a3.13239,3.13239,0,0,0,3.13244-3.13243v-.00065a3.13239,3.13239,0,0,0-3.13244-3.13243h-6.26589v6.26551Z"/><path class="cls-24" d="M966.96572,328.13623a3.13239,3.13239,0,0,0,3.13244-3.13244v-.00064a3.13246,3.13246,0,0,0-3.13244-3.13243h-6.26589v6.26551Z"/><path class="cls-24" d="M966.96572,345.36654a3.13246,3.13246,0,0,0,3.13244-3.13243v-.00064a3.13239,3.13239,0,0,0-3.13244-3.13244h-6.26589v6.26551Z"/><path class="cls-13" d="M567.77026,0H0V640.00012H553.62549a958.14759,958.14759,0,0,0,61.93945-340.70581A959.50771,959.50771,0,0,0,567.77026,0Z"/><path class="cls-15" d="M558.63159,626.46985c.3385-.93652.66162-1.88037.99658-2.81787l-58.28271.04272-.0459-62.56518,62.55786-.04578.03711,50.45032c.95984-2.79956,1.884-5.61646,2.81812-8.42774l-.03077-42.02465,12.93848-.00953c.26428-.93835.52124-1.87939.78284-2.81762l-13.72327.01-.0459-62.56714,28.947-.021c.19361-.93847.38282-1.87866.57471-2.81763l-29.52368.02161-.0459-62.56531,40.18421-.02929c.12756-.93836.248-1.87915.37207-2.81751l-40.55835.02979-.04578-62.56714,46.84717-.0343c.06274-.93811.11157-1.879.17138-2.81714l-47.02075.03442-.04577-62.56714,49.073-.03576c-.00012-.07264.00171-.144.00159-.21668-.00049-.86926-.02515-1.73218-.02759-2.60058l-49.04907.036-.0459-62.56531,46.85474-.03418c-.064-.93994-.13245-1.87793-.19922-2.8169l-46.65747.03406-.0459-62.56714,40.2439-.02942c-.12818-.938-.238-1.88061-.36792-2.81689l-39.87793.0293-.0459-62.567,29.03137-.02124c-.19519-.9408-.39941-1.87793-.59729-2.81677l-28.43616.021-.04577-62.5653,13.07409-.00965c-.26477-.93872-.52319-1.87939-.79064-2.81665l-12.28553.00928L566.271,0h-2.82447l.02576,35.19885-62.55774.0459L500.88867,0h-2.82629l.02575,35.2467-62.55786.0459L435.50439,0h-2.82617l.02588,35.29468-62.558.04577L370.12024,0H367.294l.02587,35.34265-62.55786.04566L304.73608,0h-2.82446l.02588,35.39026-62.55969.0459L239.35181,0h-2.82447l.02588,35.43823-62.55957.04578L173.96753,0h-2.82434l.026,35.48621-62.55969.04589L108.5835,0h-2.82459l.026,35.53406L43.22717,35.58,43.20117,0H40.37476l.02612,35.58191L0,35.61145v2.81726l40.40295-.02966.04578,62.56518L0,100.99377V103.811l40.45093-.02967.04577,62.567L0,166.37805v2.81714l40.49878-.02966.04578,62.567L0,231.76233v2.817l40.54651-.02967.04578,62.56519L0,297.14465v2.817l40.59448-.02966.0459,62.567L0,362.52881v2.817l40.64246-.02955.04577,62.5669L0,427.913v2.81714l40.69031-.02978.04577,62.56518L0,493.29553v2.8169l40.738-.02979.0459,62.56714L0,558.67957v2.81713l40.78613-.02978.04578,62.56518L0,624.06189V626.879l40.834-.02979.00965,13.15088h2.82629l-.00964-13.15307,62.558-.04566.00952,13.19873h2.82447l-.00965-13.20093,62.55982-.04589.00964,13.24682h2.82434l-.00964-13.24878,62.55957-.0459.00976,13.29468h2.82447l-.00977-13.29663,62.55982-.0459.00976,13.34253h2.82446L305.195,626.6554l62.558-.04566.00977,13.39038h2.82617l-.00977-13.39258,62.558-.04589.00989,13.43847h2.82617l-.00976-13.44043,62.55786-.0459.00989,13.48633h2.82629l-.00989-13.48828ZM43.22925,38.39685l62.55786-.04578.0459,62.56531-62.55786.0459Zm.04785,65.38232,62.558-.04577.04578,62.56714-62.55786.04577Zm.04785,65.38428,62.55786-.0459.0459,62.56714-62.558.0459Zm.04785,65.38416,62.55786-.04578.0459,62.56519-62.55786.0459Zm.0481,65.38232,62.55786-.04577.04578,62.56713-62.55787.04566Zm.04785,65.38416,62.55786-.0459.0459,62.567-62.558.04577Zm.04773,65.38415,62.558-.04577.0459,62.56506-62.5581.04578Zm.048,65.38233,62.55786-.04578.04578,62.56689-62.55774.0459Zm.09375,127.94934-.04577-62.56519,62.55774-.0459.04589,62.56519ZM108.61157,38.34912l62.55969-.04578.04578,62.56519-62.55957.0459Zm.04785,65.38233,62.55982-.04578.0459,62.56714-62.55982.04577Zm.04786,65.38415,62.55981-.0459.04578,62.56714-62.5597.0459Zm.048,65.38416,62.55969-.04578.04578,62.56519-62.55969.04589Zm.048,65.38232,62.55957-.04578.0459,62.56714-62.55957.04566Zm.04785,65.384,62.55982-.04565.04578,62.567-62.55982.04577Zm.04786,65.38416,62.55969-.0459.04577,62.56543-62.55981.04578Zm.04785,65.38232,62.55969-.0459.04578,62.56714-62.55957.0459Zm.09375,127.94947-.04578-62.56531,62.55969-.04578.0459,62.56519ZM173.99585,38.30127l62.55957-.04578.0459,62.56519-62.55969.04578Zm.04773,65.38232,62.55981-.04577.04578,62.56689-62.55981.0459Zm.04785,65.38416,62.55969-.04578.0459,62.567-62.55981.04578Zm.048,65.38428,62.55957-.0459.0459,62.56518-62.55957.04578Zm.048,65.38232,62.55969-.0459.04578,62.5669-62.5597.0459Zm.04773,65.384,62.55981-.04577.0459,62.567-62.55981.04578Zm.04785,65.384,62.55981-.04566.0459,62.56519-62.55981.04577Zm.04809,65.38232,62.55957-.04578.0459,62.56714-62.55969.04578Zm.09375,127.94946-.04589-62.56518,62.55969-.0459.04578,62.56531ZM239.37988,38.2533l62.5597-.0459.04577,62.56518-62.55957.0459Zm.04785,65.38232,62.55982-.0459.0459,62.56714-62.55982.04578Zm.04786,65.38428,62.55981-.0459.0459,62.56689-62.55982.0459Zm.048,65.384,62.55969-.04578.04578,62.56507-62.55969.0459Zm.048,65.38232,62.55957-.04577.0459,62.567-62.55957.04577Zm.04785,65.38428,62.55982-.0459.04565,62.5669-62.55969.0459Zm.04786,65.384,62.55957-.04578.0459,62.56518-62.5597.04578Zm.04785,65.38232,62.55969-.04578.04578,62.567-62.55957.0459Zm.09375,127.94946-.04566-62.56518,62.55957-.0459.0459,62.56518Zm64.95532-585.681,62.55774-.04565.04578,62.56506-62.55774.0459Zm.04785,65.38233,62.55786-.04578.0459,62.56714-62.558.04578Zm.04773,65.38415,62.558-.04577.0459,62.567-62.5581.0459Zm.048,65.38428,62.55787-.0459.04577,62.56531-62.55774.04577Zm.048,65.38232,62.55774-.0459.0459,62.56714-62.55787.0459Zm.04785,65.384,62.55774-.04578.0459,62.56714-62.55786.04578Zm.04773,65.38427,62.55786-.04589.0459,62.5653-62.55786.04566Zm.0481,65.38233,62.55773-.0459.04578,62.567-62.55774.04577Zm.0935,127.94922-.04578-62.56519,62.558-.04565.0459,62.56506ZM370.14819,38.15759l62.55786-.04577.0459,62.56518-62.55786.04578Zm.04785,65.38233,62.55787-.0459.04589,62.56714-62.55786.0459Zm.04786,65.384,62.55786-.04578.0459,62.56714-62.55787.04578Zm.048,65.38428,62.55774-.0459.0459,62.56531-62.55786.04577Zm.048,65.38232,62.55774-.0459.04578,62.56714-62.55786.0459Zm.04761,65.38416,62.55811-.04578.04577,62.567-62.558.04577Zm.0481,65.38415,62.55786-.0459.04577,62.56543-62.55786.04566Zm.04785,65.38208,62.55786-.04565.0459,62.567-62.55786.04578Zm.09375,127.94947-.0459-62.56519,62.55786-.0459.0459,62.56531Zm64.9552-585.68067,62.558-.0459L498.136,100.629l-62.55787.0459Zm.048,65.38233,62.55774-.0459.04578,62.567-62.55774.04578Zm.04785,65.38415,62.55787-.04578.04577,62.5669-62.558.0459Zm.04786,65.38416,62.55786-.0459.04577,62.56518-62.55786.0459Zm.04785,65.38232,62.55786-.0459.0459,62.567-62.55786.04577Zm.04785,65.38416,62.55786-.04578.0459,62.56689-62.55786.0459Zm.04785,65.38415,62.558-.0459.04578,62.56519-62.55786.0459Zm.048,65.38232,62.55787-.04589.04577,62.56714-62.55786.04577Zm.09375,127.94935-.04577-62.56531,62.55786-.04566.04578,62.56519Zm64.9552-585.681,62.55787-.04578.04589,62.56531-62.558.04565Zm.04786,65.38244,62.55786-.04577.0459,62.56689-62.55787.0459Zm.04785,65.38416,62.55786-.0459.0459,62.567-62.55786.04577Zm.04785,65.38415,62.558-.04577.04578,62.56506-62.55786.04578Zm.048,65.38233,62.55786-.04578.04578,62.56689-62.55786.0459Zm.048,65.38415,62.55786-.0459.04577,62.56714-62.55786.04566Zm.04785,65.38416,62.55786-.04578.0459,62.56519-62.558.04577Zm.04785,65.38232,62.55786-.04578.0459,62.5669-62.55786.0459Z"/><path class="cls-24" d="M345.09079,251.48794a45.92628,45.92628,0,1,0-79.50974-45.99008L177.32954,358.64575a45.92631,45.92631,0,1,0,79.5098,45.99007l47.62443-82.64559-22.42232,38.90943-55.59993-.1115,16.12948-16.16a45.78535,45.78535,0,0,1-10.69476-25.31138c-.13753-1.45454-.22254-2.92444-.22254-4.41614v-.00423c0-.05608.004-.11216.008-.16735.00178-.02671.00379-.05319.00512-.07945a45.93282,45.93282,0,0,1,45.64624-45.73259c.02805-.00156.05564-.00334.08323-.00534.05431-.004.10838-.00779.16313-.00779H335.055Z"/><path class="cls-25" d="M425.47578,358.64352,388.41947,294.285a45.98964,45.98964,0,0,0-40.955-25.38326H335.05387l-53.00575,91.9826H293.216l.00868.07211c.33582-.00668.66274-.0503,1.00279-.0503a45.82682,45.82682,0,0,1,39.58594,22.78662l.08279-.024c4.61287,8.01333,8.8748,15.4131,12.07274,20.96266a45.92447,45.92447,0,1,0,79.50684-45.98784Z"/><path class="cls-1" d="M1014.88544,427.4812H827.16406V615.20409h187.72138Z"/><path class="cls-12" d="M1014.82773,427.53742A187.72164,187.72164,0,0,0,827.1056,615.2588v.00151a187.72432,187.72432,0,0,0,187.72213-187.72289Z"/></g></g></svg>